<svg xmlns="http://www.w3.org/2000/svg" xmlns:xlink="http://www.w3.org/1999/xlink" viewBox="0 0 515.49 511.55"><defs><style>.cls-1,.cls-16,.cls-18,.cls-37,.cls-40,.cls-45,.cls-5,.cls-6,.cls-7{fill:none;}.cls-2{isolation:isolate;}.cls-3{clip-path:url(#clip-path);}.cls-17,.cls-20,.cls-21,.cls-39,.cls-4,.cls-41{fill:#fff;}.cls-4{opacity:0.81;}.cls-41,.cls-5,.cls-6,.cls-7{stroke:#6da09c;}.cls-5,.cls-7{stroke-linejoin:round;}.cls-40,.cls-5{stroke-width:2px;}.cls-16,.cls-17,.cls-18,.cls-29,.cls-37,.cls-39,.cls-40,.cls-41,.cls-45,.cls-6{stroke-miterlimit:10;}.cls-6{stroke-width:4px;}.cls-7{stroke-width:5px;}.cls-22,.cls-8{fill:#8fc6c3;}.cls-34,.cls-47,.cls-9{fill:#6da09c;}.cls-10{fill:#537a7c;}.cls-11,.cls-13,.cls-14,.cls-19,.cls-22,.cls-24,.cls-25,.cls-28,.cls-35,.cls-38{mix-blend-mode:multiply;}.cls-11{opacity:0.42;}.cls-12,.cls-13{fill:#313151;}.cls-13,.cls-14{opacity:0.34;}.cls-15,.cls-19{fill:#b1e5e1;}.cls-16,.cls-17,.cls-18{stroke:#537a7c;}.cls-18{stroke-width:0.5px;}.cls-20{opacity:0.43;}.cls-22{opacity:0.47;}.cls-23,.cls-24,.cls-28{fill:#ffa194;}.cls-24,.cls-33{opacity:0.56;}.cls-25,.cls-28{opacity:0.65;}.cls-26{fill:#f43434;}.cls-27{fill:#362629;}.cls-29{fill:#8c1524;stroke:#f43434;}.cls-30{opacity:0.58;}.cls-31{fill:#4e72aa;}.cls-32,.cls-35{fill:#2e3971;}.cls-33,.cls-36{fill:#1b1b2d;}.cls-34{opacity:0.64;}.cls-35{opacity:0.54;}.cls-37{stroke:#2e3971;}.cls-38{fill:#c52429;opacity:0.46;}.cls-39{stroke:#8fc6c3;}.cls-40{stroke:#b1e5e1;}.cls-40,.cls-45{stroke-linecap:round;}.cls-42{fill:#729b82;}.cls-43{fill:#485e48;}.cls-44{fill:#47433a;}.cls-45{stroke:#47433a;}.cls-46{fill:#007456;}.cls-47{font-size:25.45px;font-family:MyriadPro-Regular, Myriad Pro;}.cls-48{letter-spacing:-0.04em;}</style><clipPath id="clip-path"><rect class="cls-1" x="2.96" width="500" height="500"/></clipPath></defs><g class="cls-2"><g id="OBJECTS"><g class="cls-3"><path class="cls-4" d="M.34,434.49Q.7,412,1.46,389.44c.12-3.66.34-7.59,2.59-10.47s7.33-3.78,9.4-.77c-5.5-11.08-8.72-28.76-2.88-40.33,3.26-6.47,11.74-10.87,18-7.2-5-13.33-3.67-28.54,1.93-41.62s15.23-24.17,26.4-33c14-11,30.85-18.91,48.61-20s36.34,5.15,48.17,18.45c-1.63-1.83.93-11.73,1.38-14a98.94,98.94,0,0,1,4.75-15.61A103.52,103.52,0,0,1,171.09,202a95.76,95.76,0,0,1,40.7-33.49c32.12-13.91,78-12,104.13,12.82a86,86,0,0,1,25.93,70.2c.53-5.11,15.78-10.59,19.78-11.76a52.8,52.8,0,0,1,24.92-1c18.2,3.62,31.26,13.56,38,31.19,4,10.6,5.4,22,6.19,33.33-.49-7.09,12-10.86,17.06-11.31a22.86,22.86,0,0,1,21,10c5.29,7.78,6.23,17.8,5.1,27.14,4.54-6.9,17.6-4.61,23-.34,9.7,7.74,8.83,21.51,8.92,32.66q.21,24.08.43,48.16c.07,7.83.59,94,.85,94-58.36-.59-116.55,2.19-174.87,2.91-59.34.73-118.56-4-177.87-5.13Q82.43,500,10.7,505.68c-2.89.23-6.15.35-8.29-1.6S.09,498.87.07,496Q-.16,465.24.34,434.49Z"/></g><g class="cls-3"><path class="cls-5" d="M513.46,455.89q0-9.36,0-18.71c0-3.18,0-6.36,0-9.54-.36-30.67-1.27-61.31-.57-92,.18-7.79.4-15.59.59-23.39-.36-20-.9-40-1.21-60l-5.32,5-6.36-26.92L484,251.89l-12.9-24.74-10.26,24.73L443.8,230.37l-4.28,26.24-22.41-16.82-.05,27.61L394,254.28l6,26.87-27-5.88L385.61,299H358.09l17.23,21.38-26.7,6,21.11,15.42-24.1,12.07,24.64,10.59-21.44,17.81,26.72,5.78-17.38,20.86h27.54l-11.62,25,26.31-6.85-6.77,26.13,24.85-11.94-.91,26.94L438.93,451l5.36,26.55,16.64-21.6,11.45,24.72,12.1-24.8,16.87,21.48,4.4-26.32,7.69,5.7C513.44,456.43,513.45,456.16,513.46,455.89Z"/><path class="cls-6" d="M513,472.43c0-.88,0-1.76.07-2.64q.21-6.9.41-13.79,0-9.4,0-18.82c0-3.18,0-6.36,0-9.54-.36-30.67-1.27-61.31-.57-92,.18-7.79.4-15.59.59-23.39-.48-26.26-1.26-52.5-1.43-78.77a126.75,126.75,0,1,0,.06,240.76A4.43,4.43,0,0,1,513,472.43Z"/><path class="cls-6" d="M513.43,437.18c0-3.18,0-6.36,0-9.54-.36-30.67-1.27-61.31-.57-92,.18-7.79.4-15.59.59-23.39-.32-17.64-.78-35.28-1.1-52.92A102.66,102.66,0,1,0,513.44,448C513.43,444.38,513.42,440.78,513.43,437.18Z"/><path class="cls-7" d="M424.74,500.14c11.88-39.13,24.77-77.94,36.72-117q5-16.46,9.78-33a15.41,15.41,0,0,1,.54,1.79c-.19-.6-.37-1.2-.54-1.79C486,393,498,436,510.87,479.88"/><path class="cls-5" d="M369.73,353.89c47.23.11,93.23.11,140.64,0"/><path class="cls-5" d="M373.1,380.09c35.81-10,71.93-18.84,107.82-28.55Q496,347.46,511,343.13"/><path class="cls-5" d="M383.19,404.74c33.4-19.32,66.92-38.44,100.15-58.07q14.24-8.4,28.37-16.93"/><path class="cls-5" d="M398.7,425.37c30.11-28.65,58.46-59.05,87.91-88.37Q498.85,324.82,511.4,313"/><path class="cls-5" d="M419.82,442.08c11.68-20.79,23.65-41.41,35.62-62s23.95-41,36.38-61.26c6.91-11.25,13.09-22.9,19.74-34.29"/><line class="cls-5" x1="497.52" y1="254.33" x2="447.14" y2="453.42"/><line class="cls-5" x1="445.26" y1="254.86" x2="497.52" y2="454.55"/><path class="cls-5" d="M511.43,423.35C486,377,460,333,433,286a214,214,0,0,1-13.14-21.49"/><path class="cls-5" d="M511.44,394.06C475,355,436,319,400,281.15"/><path class="cls-5" d="M510.54,375.4c-33-19.06-66.54-37.31-99.49-56.54q-13.83-8.08-27.52-16.42"/><path class="cls-5" d="M511,364.48C465,353,419,338,373.34,326.82"/><line class="cls-5" x1="471.24" y1="251.83" x2="471.24" y2="457.15"/><circle class="cls-8" cx="472.38" cy="353.89" r="21.35"/><circle class="cls-9" cx="472.38" cy="353.89" r="14.91"/><circle class="cls-8" cx="468.98" cy="216.42" r="7.57" transform="translate(-15.67 395.01) rotate(-45)"/><circle class="cls-8" cx="401.69" cy="236.61" r="7.57" transform="translate(-20.22 434.92) rotate(-55.67)"/><circle class="cls-8" cx="353.3" cy="284.4" r="7.57" transform="translate(-4.88 562.63) rotate(-76.67)"/><circle class="cls-8" cx="334.36" cy="354.49" r="7.57" transform="translate(-152.73 340.26) rotate(-45)"/><circle class="cls-8" cx="351.49" cy="419.38" r="7.57" transform="translate(-193.59 371.38) rotate(-45)"/><circle class="cls-8" cx="402.3" cy="472.28" r="7.57" transform="translate(-149.57 755.73) rotate(-76.76)"/><path class="cls-9" d="M512.31,504.58a4.5,4.5,0,0,1-.14-5.64v-.09l-.08,0,.08-.15c0-1,0-2,0-3v-.43H395.72a4.25,4.25,0,0,0-4.25,4.25v4c2.56.08,5.1.21,7.6.31,13.65.54,27.34.65,41,.77,24.08.23,48.16.19,72.25.16C512.32,504.75,512.32,504.67,512.31,504.58Z"/><polygon class="cls-9" points="49.37 206.1 49.72 209.58 47.8 211.65 27.2 213.98 23.52 212.55 23.16 209.06 27 206.03 45.81 204 49.37 206.1"/><polygon class="cls-10" points="35.73 172.41 30.3 150.08 29.8 173.08 33.09 176.64 35.73 172.41"/><polygon class="cls-9" points="36.68 178.98 35.73 172.41 29.8 173.08 29.92 179.74 31.1 180.8 35.84 180.26 36.68 178.98"/><path class="cls-10" d="M49.37,206.1l-26.21,3a159.47,159.47,0,0,0,6.35-29.27l7.58-.86A113.72,113.72,0,0,0,49.37,206.1Z"/><g class="cls-11"><polygon class="cls-12" points="39.16 195.02 36.2 195.36 37.36 192.12 39.16 195.02"/><polygon class="cls-12" points="33.92 195.62 30.95 195.95 32.12 192.71 33.92 195.62"/><polygon class="cls-12" points="35.46 186.85 32.5 187.18 33.67 183.94 35.46 186.85"/><polygon class="cls-12" points="42.7 202.95 39.73 203.29 40.9 200.05 42.7 202.95"/><polygon class="cls-12" points="37.42 203.55 34.45 203.88 35.62 200.65 37.42 203.55"/><polygon class="cls-12" points="32.03 204.16 29.07 204.49 30.23 201.25 32.03 204.16"/></g><polygon class="cls-9" points="24.24 236.9 54.06 233.73 51.57 209.41 21.77 212.78 24.24 236.9"/><polygon class="cls-8" points="22.11 216.06 51.9 212.69 51.57 209.41 21.77 212.78 22.11 216.06"/><path class="cls-13" d="M49,229.14l-3.3.37-.91-8.84a1.72,1.72,0,0,1,1.48-1.89h0a1.66,1.66,0,0,1,1.82,1.52Z"/><path class="cls-13" d="M41.42,230l-.91-8.84A1.71,1.71,0,0,1,42,219.27h0a1.67,1.67,0,0,1,1.82,1.51l.91,8.85Z"/><path class="cls-13" d="M37.1,230.49l-.9-8.84a1.7,1.7,0,0,1,1.47-1.89h0a1.67,1.67,0,0,1,1.83,1.51l.9,8.85Z"/><path class="cls-13" d="M32.79,231l-.91-8.85a1.71,1.71,0,0,1,1.48-1.88h0a1.66,1.66,0,0,1,1.82,1.51l.91,8.84Z"/><path class="cls-13" d="M28.48,231.47l-.91-8.85a1.69,1.69,0,0,1,1.48-1.88h0a1.65,1.65,0,0,1,1.82,1.51l.91,8.84Z"/><path class="cls-10" d="M53.87,231.85a161.87,161.87,0,0,0,15.3,28.59l-1.47,3.87L17.4,270l-2.49-3.42a156.56,156.56,0,0,0,9.16-31.35Z"/><g class="cls-11"><polygon class="cls-12" points="48.5 246.65 51.74 246.28 51.13 240.34 47.89 240.71 48.5 246.65"/><polygon class="cls-12" points="39.12 247.71 42.36 247.35 41.75 241.4 38.51 241.77 39.12 247.71"/><polygon class="cls-12" points="28.96 248.86 32.2 248.5 31.59 242.55 28.35 242.92 28.96 248.86"/><polygon class="cls-12" points="25.48 261.24 28.72 260.88 28.11 254.93 24.87 255.3 25.48 261.24"/><polygon class="cls-12" points="34.86 260.18 38.1 259.81 37.49 253.87 34.25 254.24 34.86 260.18"/><polygon class="cls-12" points="45.02 259.03 48.26 258.67 47.65 252.72 44.41 253.09 45.02 259.03"/><polygon class="cls-12" points="54.4 257.97 57.64 257.6 57.03 251.66 53.79 252.03 54.4 257.97"/></g><polygon class="cls-8" points="17.28 289.71 71.54 283.58 69.17 260.44 14.91 266.58 17.28 289.71"/><g class="cls-14"><path class="cls-12" d="M57,276.63l5-.57-.91-8.87a1.73,1.73,0,0,0-1.89-1.58l-1.56.17a1.78,1.78,0,0,0-1.52,2Z"/><path class="cls-12" d="M49.19,277.51l5-.56-.91-8.87a1.72,1.72,0,0,0-1.88-1.59l-1.57.18a1.76,1.76,0,0,0-1.51,2Z"/><path class="cls-12" d="M40.6,278.48l5-.56-.91-8.87a1.73,1.73,0,0,0-1.88-1.59l-1.56.18a1.78,1.78,0,0,0-1.52,2Z"/><path class="cls-12" d="M32.78,279.37l5-.56-.91-8.88A1.73,1.73,0,0,0,35,268.35l-1.56.17a1.78,1.78,0,0,0-1.52,2Z"/><path class="cls-12" d="M25,280.25l5-.56L29,270.82a1.73,1.73,0,0,0-1.88-1.59l-1.57.18a1.77,1.77,0,0,0-1.52,2Z"/></g><polygon class="cls-10" points="80.66 336.31 82.12 339.23 78.42 343.52 76.95 346.59 24.95 352.47 23.07 349.78 18.12 346.47 20.06 343.17 80.66 336.31"/><polygon class="cls-8" points="39.64 511.55 95 505.28 78.42 343.52 23.07 349.78 39.64 511.55"/><polygon class="cls-15" points="78.23 376.82 80.02 376.62 76.95 346.59 75.15 346.79 78.23 376.82"/><polygon class="cls-15" points="73.7 377.33 75.5 377.13 72.42 347.1 70.62 347.31 73.7 377.33"/><polygon class="cls-15" points="69.17 377.85 70.97 377.64 67.89 347.61 66.09 347.82 69.17 377.85"/><polygon class="cls-15" points="64.64 378.36 66.44 378.15 63.36 348.13 61.57 348.33 64.64 378.36"/><polygon class="cls-15" points="60.12 378.87 61.91 378.67 58.84 348.64 57.04 348.84 60.12 378.87"/><polygon class="cls-15" points="55.59 379.38 57.38 379.18 54.31 349.15 52.51 349.35 55.59 379.38"/><polygon class="cls-15" points="51.06 379.89 52.86 379.69 49.78 349.66 47.98 349.87 51.06 379.89"/><polygon class="cls-15" points="46.53 380.41 48.33 380.2 45.25 350.18 43.45 350.38 46.53 380.41"/><polygon class="cls-15" points="42 380.92 43.8 380.71 40.72 350.69 38.93 350.89 42 380.92"/><polygon class="cls-15" points="37.48 381.43 39.27 381.23 36.2 351.2 34.4 351.4 37.48 381.43"/><polygon class="cls-15" points="32.95 381.94 34.75 381.74 31.67 351.71 29.87 351.92 32.95 381.94"/><polygon class="cls-15" points="28.42 382.46 30.22 382.25 27.14 352.22 25.34 352.43 28.42 382.46"/><polygon class="cls-15" points="82.4 417.55 84.2 417.35 81.12 387.32 79.32 387.53 82.4 417.55"/><polygon class="cls-15" points="77.87 418.07 79.67 417.86 76.59 387.83 74.8 388.04 77.87 418.07"/><polygon class="cls-15" points="73.34 418.58 75.14 418.38 72.06 388.35 70.27 388.55 73.34 418.58"/><polygon class="cls-15" points="68.82 419.09 70.61 418.89 67.54 388.86 65.74 389.06 68.82 419.09"/><polygon class="cls-15" points="64.29 419.6 66.09 419.4 63.01 389.37 61.21 389.57 64.29 419.6"/><polygon class="cls-15" points="59.76 420.12 61.56 419.91 58.48 389.88 56.68 390.09 59.76 420.12"/><polygon class="cls-15" points="55.23 420.63 57.03 420.42 53.95 390.4 52.16 390.6 55.23 420.63"/><polygon class="cls-15" points="50.7 421.14 52.5 420.94 49.43 390.91 47.63 391.11 50.7 421.14"/><polygon class="cls-15" points="46.18 421.65 47.98 421.45 44.9 391.42 43.1 391.62 46.18 421.65"/><polygon class="cls-15" points="41.65 422.16 43.45 421.96 40.37 391.93 38.57 392.14 41.65 422.16"/><polygon class="cls-15" points="37.12 422.68 38.92 422.47 35.84 392.44 34.05 392.65 37.12 422.68"/><polygon class="cls-15" points="32.59 423.19 34.39 422.99 31.32 392.96 29.52 393.16 32.59 423.19"/><polygon class="cls-15" points="86.5 457.55 88.3 457.34 85.22 427.32 83.42 427.52 86.5 457.55"/><polygon class="cls-15" points="81.97 458.06 83.77 457.86 80.69 427.83 78.89 428.03 81.97 458.06"/><polygon class="cls-15" points="77.44 458.57 79.24 458.37 76.16 428.34 74.36 428.54 77.44 458.57"/><polygon class="cls-15" points="72.91 459.08 74.71 458.88 71.64 428.85 69.84 429.06 72.91 459.08"/><polygon class="cls-15" points="68.39 459.6 70.18 459.39 67.11 429.37 65.31 429.57 68.39 459.6"/><polygon class="cls-15" points="63.86 460.11 65.66 459.9 62.58 429.88 60.78 430.08 63.86 460.11"/><polygon class="cls-15" points="59.33 460.62 61.13 460.42 58.05 430.39 56.25 430.59 59.33 460.62"/><polygon class="cls-15" points="54.8 461.13 56.6 460.93 53.52 430.9 51.73 431.11 54.8 461.13"/><polygon class="cls-15" points="50.27 461.64 52.07 461.44 49 431.41 47.2 431.62 50.27 461.64"/><polygon class="cls-15" points="45.75 462.16 47.55 461.95 44.47 431.93 42.67 432.13 45.75 462.16"/><polygon class="cls-15" points="41.22 462.67 43.02 462.47 39.94 432.44 38.14 432.64 41.22 462.67"/><polygon class="cls-15" points="36.69 463.18 38.49 462.98 35.41 432.95 33.62 433.15 36.69 463.18"/><polygon class="cls-15" points="90.67 498.28 92.47 498.08 89.39 468.05 87.59 468.25 90.67 498.28"/><polygon class="cls-15" points="86.14 498.79 87.94 498.59 84.86 468.56 83.07 468.76 86.14 498.79"/><polygon class="cls-15" points="81.62 499.3 83.41 499.1 80.34 469.07 78.54 469.28 81.62 499.3"/><polygon class="cls-15" points="77.09 499.82 78.89 499.61 75.81 469.58 74.01 469.79 77.09 499.82"/><polygon class="cls-15" points="72.56 500.33 74.36 500.13 71.28 470.1 69.48 470.3 72.56 500.33"/><polygon class="cls-15" points="68.03 500.84 69.83 500.64 66.75 470.61 64.96 470.81 68.03 500.84"/><polygon class="cls-15" points="63.5 501.35 65.3 501.15 62.23 471.12 60.43 471.33 63.5 501.35"/><polygon class="cls-15" points="58.98 501.87 60.77 501.66 57.7 471.63 55.9 471.84 58.98 501.87"/><polygon class="cls-15" points="54.45 502.38 56.25 502.17 53.17 472.15 51.37 472.35 54.45 502.38"/><polygon class="cls-15" points="49.92 502.89 51.72 502.69 48.64 472.66 46.84 472.86 49.92 502.89"/><polygon class="cls-15" points="45.39 503.4 47.19 503.2 44.11 473.17 42.32 473.38 45.39 503.4"/><polygon class="cls-15" points="40.87 503.91 42.66 503.71 39.59 473.68 37.79 473.89 40.87 503.91"/><polygon class="cls-9" points="26.8 386.21 82.16 379.95 82.01 378.55 26.66 384.81 26.8 386.21"/><polygon class="cls-9" points="27.18 389.91 82.53 383.65 82.39 382.25 27.03 388.52 27.18 389.91"/><polygon class="cls-9" points="30.97 426.94 86.33 420.68 86.19 419.29 30.83 425.55 30.97 426.94"/><polygon class="cls-9" points="31.35 430.64 86.71 424.38 86.57 422.99 31.21 429.25 31.35 430.64"/><polygon class="cls-9" points="35.07 466.93 90.43 460.67 90.28 459.28 34.93 465.54 35.07 466.93"/><polygon class="cls-9" points="35.45 470.64 90.81 464.38 90.66 462.98 35.31 469.24 35.45 470.64"/><polygon class="cls-15" points="39.24 507.67 94.6 501.4 94.46 500.01 39.1 506.27 39.24 507.67"/><polygon class="cls-15" points="39.62 511.37 94.98 505.11 94.84 503.71 39.48 509.98 39.62 511.37"/><polygon class="cls-10" points="73.42 265.6 71.72 260.77 71.03 265.87 72.66 281.82 75.05 281.55 73.42 265.6"/><polygon class="cls-10" points="14.27 272.3 12.57 267.46 11.87 272.57 13.51 288.51 15.9 288.24 14.27 272.3"/><line class="cls-16" x1="73.43" y1="277.55" x2="73.71" y2="280.29"/><line class="cls-16" x1="68.74" y1="278.08" x2="69.02" y2="280.82"/><line class="cls-16" x1="63.27" y1="278.69" x2="63.55" y2="281.44"/><line class="cls-16" x1="57.8" y1="279.31" x2="58.08" y2="282.06"/><line class="cls-16" x1="52.33" y1="279.93" x2="52.61" y2="282.68"/><line class="cls-16" x1="46.07" y1="280.64" x2="46.35" y2="283.38"/><line class="cls-16" x1="39.82" y1="281.35" x2="40.1" y2="284.09"/><line class="cls-16" x1="33.57" y1="282.05" x2="33.85" y2="284.8"/><line class="cls-16" x1="27.31" y1="282.76" x2="27.6" y2="285.51"/><line class="cls-16" x1="20.28" y1="283.56" x2="20.56" y2="286.3"/><line class="cls-16" x1="14.03" y1="284.27" x2="14.31" y2="287.01"/><polyline class="cls-16" points="76.06 280.02 75.78 277.28 11.77 284.52 12.05 287.26"/><polygon class="cls-8" points="18.12 346.47 82.12 339.23 76.06 280.02 12.05 287.26 18.12 346.47"/><polygon class="cls-9" points="18.12 346.47 82.12 339.23 80.42 322.57 16.41 329.81 18.12 346.47"/><path class="cls-13" d="M66.89,336l5-.56-.52-5.14a1.73,1.73,0,0,0-1.89-1.58l-1.56.17a1.78,1.78,0,0,0-1.52,2Z"/><path class="cls-13" d="M59.07,336.91l5-.56-.53-5.14a1.73,1.73,0,0,0-1.88-1.59l-1.57.18a1.76,1.76,0,0,0-1.51,2Z"/><path class="cls-13" d="M50.47,337.88l5-.56-.53-5.14A1.73,1.73,0,0,0,53,330.59l-1.56.18a1.78,1.78,0,0,0-1.52,2Z"/><path class="cls-13" d="M42.66,338.77l5-.57-.52-5.13a1.73,1.73,0,0,0-1.89-1.59l-1.56.17a1.78,1.78,0,0,0-1.52,2Z"/><path class="cls-13" d="M34.84,339.65l5-.56L39.28,334a1.73,1.73,0,0,0-1.88-1.59l-1.57.18a1.78,1.78,0,0,0-1.52,2Z"/><path class="cls-13" d="M26.83,340.46l5-.56-.53-5.14a1.72,1.72,0,0,0-1.88-1.59l-1.57.18a1.77,1.77,0,0,0-1.52,2Z"/><polygon class="cls-9" points="29.36 325.89 67.24 321.61 63.4 284.1 25.52 288.38 29.36 325.89"/><polygon class="cls-9" points="70.79 321.21 77.82 320.41 73.98 282.9 66.94 283.7 70.79 321.21"/><polygon class="cls-9" points="18.42 327.13 25.45 326.34 21.61 288.83 14.57 289.62 18.42 327.13"/><path class="cls-17" d="M28.47,306.87c1.05,10.25,9.92,17.65,19.81,16.54s17.07-10.34,16-20.59-9.92-17.65-19.81-16.53S27.43,296.62,28.47,306.87Z"/><ellipse class="cls-18" cx="46.39" cy="304.85" rx="17.57" ry="16.95" transform="translate(-260.12 338.61) rotate(-87.63)"/><ellipse class="cls-15" cx="46.39" cy="304.85" rx="16.22" ry="15.64" transform="translate(-260.12 338.6) rotate(-87.63)"/><path class="cls-19" d="M31.72,306.5A14.83,14.83,0,0,0,47.94,320c8.1-.91,14-8.46,13.11-16.85a14.84,14.84,0,0,0-16.22-13.54A15.22,15.22,0,0,0,31.72,306.5Z"/><path class="cls-20" d="M32.65,306.4a13.89,13.89,0,0,0,15.19,12.68A14.24,14.24,0,0,0,60.12,303.3a13.89,13.89,0,0,0-15.19-12.68A14.24,14.24,0,0,0,32.65,306.4Z"/><path class="cls-21" d="M37.78,305.57a8.44,8.44,0,0,0,9.23,7.7,8.65,8.65,0,0,0,7.45-9.58,8.42,8.42,0,0,0-9.22-7.7A8.65,8.65,0,0,0,37.78,305.57Z"/><line class="cls-16" x1="46.29" y1="306.44" x2="44.88" y2="292.68"/><line class="cls-16" x1="44.01" y1="304.87" x2="51.86" y2="303.98"/><path class="cls-8" d="M45,304.8a1.09,1.09,0,0,0,1.2,1,1.12,1.12,0,0,0,1-1.24,1.1,1.1,0,0,0-1.2-1A1.12,1.12,0,0,0,45,304.8Z"/><path class="cls-22" d="M23.07,349.78l-4.95-3.31-6.07-59.21,4.92-.55-2.06-20.13a156.56,156.56,0,0,0,9.16-31.35l-2-19.17h0l-.34-3.28,1.82-.2-.07,0-.36-3.49a159.47,159.47,0,0,0,6.35-29.27l.41,0h0l-.12-6.66.5-23,2.27,22.68.4,5.33,3.54-.29.17,1.18L33,180.6l2,27.12,0,2.18,14.71-.32,0,0-12.84,3.11,1.62,18.75,15.41.36h0l-14,7.46,1.25,24.31-7.16.81,1.89,19.24,35.23-4.73.22,1.62-33,7.83,6.06,52.72L81.89,337l.23,2.26-3.7,4.29,1.52,14.78L88,437.07,74.7,359.22l-28.2,2.94L59.69,491.08l1.08,10.58,33.83-.26.4,3.88-32.11,3.63-23.25,2.64Z"/></g><g class="cls-3"><path class="cls-23" d="M225.74,238.1c-2.87.58-5.74,1.21-8.59,1.88-15.15,3.56-29.17,6.9-37.89,21-7.38,11.91-6.81,26.43-5.14,39.88-.76-4.22-5.23-7.18-9.52-6.92s-8.1,3.23-10.13,7a22.13,22.13,0,0,0-2.06,12.52c.83,8.81,5.76,18.06,13.65,22.43,4.14,2.3,10.29,3.05,12.81-1-1.94,3.08,4.18,13.28,5.85,15.78,3.44,5.11,7.9,8.7,13.09,11.87a82.5,82.5,0,0,0,38.89,12A112.39,112.39,0,0,0,288.86,365c9.05-4.05,18.31-9.14,25.16-16.45,8.19-8.74,8.09-20.39,4.8-31.51,2,1.69,5.09,1.47,7.3.09a14.84,14.84,0,0,0,4.9-6,35.79,35.79,0,0,0,4.44-17A23.75,23.75,0,0,0,327.19,277c-5.94-4.83-17.35-1.15-15.49,7.73-2.15-10.23-4.34-20.6-9-29.94-5.41-10.74-15-20.85-27.52-21.78C258.62,231.76,241.91,234.8,225.74,238.1Z"/><path class="cls-24" d="M173.61,296.24c.15,1.55.32,3.08.51,4.6a8.53,8.53,0,0,0-4.7-5.9,9.65,9.65,0,0,0-3.6-1c-1-.08-2.53.58-3.35.34a9.23,9.23,0,0,1,5.4,5.17,15.17,15.17,0,0,1,1,7.55,77,77,0,0,0-13.79-2.1,3.43,3.43,0,0,0-1.43.06c-2,.68-1.38,6.89-1.23,8.5.83,8.81,5.76,18.06,13.65,22.43,4.14,2.3,10.29,3.05,12.81-1-1.94,3.08,4.18,13.28,5.85,15.78,3.44,5.11,7.9,8.7,13.09,11.87a82.5,82.5,0,0,0,38.89,12A112.39,112.39,0,0,0,288.86,365c9.05-4.05,18.31-9.14,25.16-16.45,8.19-8.74,8.09-20.39,4.8-31.51,2,1.69,5.09,1.47,7.3.09a14.84,14.84,0,0,0,4.9-6c2.14-4.07,5.35-10.9,4.2-15.54-2.81.8-5.57,2-8.33,3a17.27,17.27,0,0,0,.88-8.64c-.59-2.87-2.56-5.6-5.38-6.39a3.61,3.61,0,0,0-3.42.54c-1,.87-1.07,2.3-1.13,3.58l-.28,6c-.55-3.25-1.11-6.51-1.36-9.8-.26-3.45,0-7.42,2.76-9.55-3.87,3-8.58,4.05-7.26,10.32-2.15-10.23-4.34-20.6-9-29.94-5.41-10.74-15-20.85-27.52-21.78-16.52-1.23-33.23,1.81-49.4,5.11-2.87.58-5.74,1.21-8.59,1.88-17,4-42.79,11.55-40.17,34a24,24,0,0,0,11.27,17.47l-1.65-9.08a24.52,24.52,0,0,0,10.74,3.69,29,29,0,0,1-6.92-21,19.88,19.88,0,0,0,9.91,13.57c-3.26-5.91-2.54-13.65,1.34-19.18A22.29,22.29,0,0,1,219,250.39a27.93,27.93,0,0,1,18.63,6.76c-.22-2.5,2.79-4.36,5.23-3.79s4.18,2.77,5.22,5.06c3.58,7.81,1.18,16.93-1.45,25.1a41,41,0,0,0,16.52-27.33c.63-4.44.43-9.25-2-13,10.73-1.31,21.71,4.49,27.68,13.5s7.18,20.73,4.36,31.17a38.11,38.11,0,0,0,9.05-21.74c6.92,11.25,8.36,27.05,9.14,39.95a340.58,340.58,0,0,0-48.61,39.14,2.28,2.28,0,0,1-3.52.38,243.08,243.08,0,0,0-79.94-31.69l-5.43-16.59"/><g class="cls-25"><path class="cls-26" d="M160.78,312.46c-.4-2.67.4-7.16,4.06-6.35,2.9.94,4.42,3.87,6,6.25a28.3,28.3,0,0,1,2.34,5.28l-.61-.32s-.09.06-.09.09,0,0,0-.06a5.25,5.25,0,0,0-3-2.53c-1.7-.34-2.58,1.43-2.7,2.92-.2,3.13,1.34,7.45,4.88,8-4.43-.12-7.09-7.25-4.76-10.72a2.81,2.81,0,0,1,2.74-1.09c1.35.06,5.33,3.39,3.17,4.36l-.47.1-.14-.42a29,29,0,0,0-5.37-9.72,5.1,5.1,0,0,0-2.15-1.5c-3.19-.8-3.93,3.36-3.89,5.73Z"/></g><g class="cls-25"><path class="cls-26" d="M322.29,306.44a9.2,9.2,0,0,0,3.16-9.25c-.37-1.3-1.09-3.48-2.74-3.16-2.42.59-2.47,3.91-3.11,5.9l-.41-2.29c-.53-3.71-2.79-9.71,0-12.91,2.67-2.13,6.2.54,7.36,3.1.55,1.49.55,1.47-.14.06a7.42,7.42,0,0,0-3-2.84c-7.49-2.78-3.78,8.76-3.2,12.45l-1-.05a9.34,9.34,0,0,1,1-2.6c.7-1.3,2.51-2.28,4-1.49,1.29.79,1.75,2.31,2.06,3.67a9.13,9.13,0,0,1-3.89,9.41Z"/></g><g class="cls-25"><path class="cls-26" d="M260.51,274.13c-.91,2.95-2.25,7-3,9.93l-.26-1.06A113.51,113.51,0,0,1,271,296.39a8,8,0,0,1,1.89,2.77c.49,1.52-.73,2.85-1.76,3.63a35.53,35.53,0,0,1-7.07,4.56c-.85.42-5.32,2.61-6.06,3-.36.21-.5.3-.52.73,0,.86,0,1.81,0,2.72-.24-1.32-1.47-3.19-.1-4.25,4-3.23,9.5-6.23,12.67-9.65-4.62-5.49-9.74-10.76-14.68-16a59.48,59.48,0,0,1,5.14-9.81Z"/></g><path class="cls-27" d="M208.61,293.69c-3.84,1.93-3.6,7.93-2.37,11.38,1.92,5.4,8.58,6.19,10.9.54,2.08-5-1.31-15.19-8.34-12Z"/><path class="cls-27" d="M284.14,285.57c-3.84,1.93-3.61,7.93-2.38,11.38,1.93,5.4,8.59,6.19,10.91.55,2.08-5.05-1.31-15.2-8.34-12Z"/><path class="cls-28" d="M194,320.32a14.64,14.64,0,0,0-3.39,3.55,5.05,5.05,0,0,0-.65,4.64c.67,1.61,2.34,2.56,3.94,3.25a31.8,31.8,0,0,0,23.87.45c3.33-1.3,7.28-3.62,9.33-6.66a5.41,5.41,0,0,0,.66-5.34,5.9,5.9,0,0,0-1.65-1.87,16.21,16.21,0,0,0-7.65-2.81C211.3,314.5,200.48,315.39,194,320.32Z"/><path class="cls-28" d="M280.59,308.52a14.59,14.59,0,0,0-3.38,3.55,5,5,0,0,0-.66,4.65c.68,1.61,2.34,2.55,3.94,3.25a31.8,31.8,0,0,0,23.87.44c3.33-1.3,7.28-3.62,9.33-6.65a5.41,5.41,0,0,0,.66-5.34,5.69,5.69,0,0,0-1.65-1.87,16.07,16.07,0,0,0-7.65-2.81C297.91,302.71,287.09,303.6,280.59,308.52Z"/><path class="cls-29" d="M269.51,325.54c1.26.06,2.5.16,3.73.31.77,8.43-4.47,16.29-10.93,21.29a3.2,3.2,0,0,1-1.4.73,3.15,3.15,0,0,1-1.73-.4,30.23,30.23,0,0,1-15.94-17.41.73.73,0,0,1,.59-1.17C251.93,326.73,261,325.13,269.51,325.54Z"/><path class="cls-21" d="M269.52,326.55c.59,0,1.19.06,1.78.11-.55,1-1.26,1.82-1.8,2.83-.8,1.44-2.57,2.13-4.08,2.63a28,28,0,0,1-10.2,1.27,15.3,15.3,0,0,1-9.46-4,66.37,66.37,0,0,1,13-2.48A73.63,73.63,0,0,1,269.52,326.55Z"/><path class="cls-12" d="M193.43,275.81c7.41-12.69,26.72-15.6,37.73-6-3.57,0-6.84-.22-10-.18-9.85-.17-18.48,2.64-27.7,6.17Z"/><path class="cls-12" d="M267.91,265.64a16.7,16.7,0,0,1,27-2.16c-4.78.56-9.15-.31-13.6.08s-8.62,1.84-13.43,2.08Z"/><path class="cls-12" d="M291.79,204.5a11,11,0,0,1,2.66-4.68,1.58,1.58,0,0,1,.86-.5c.78-.09,1.24.84,1.46,1.59q.86,2.9,1.7,5.79c.89-11.74,9.3-20.79,20.51-23.51a17.57,17.57,0,0,1,7.46-.36,2.11,2.11,0,0,1,1.14.47c1,1-.24,2.58-1.39,3.38a30.21,30.21,0,0,1,16,.74,22.84,22.84,0,0,1,12.38,9.88c3.93,6.78,3.58,15.26,1.63,22.85a2.59,2.59,0,0,0,0,2,3.18,3.18,0,0,0,1.7,1,8.05,8.05,0,0,1,4.56,5.86,15.45,15.45,0,0,1-.58,7.62,18.85,18.85,0,0,1-5.1,8.8,11.17,11.17,0,0,1-9.47,3,16.89,16.89,0,0,1-13.73,12.4c-6.12.85-12.31-1.85-17-5.86s-8.16-9.25-11.56-14.41c-7.09-10.77-16.35-19.55-13.77-33.71A19.4,19.4,0,0,1,291.79,204.5Z"/><g class="cls-30"><path class="cls-31" d="M309.8,228.76c-5.33-11.41-7.78-27.1,4.14-35.27a13.45,13.45,0,0,1,5.11-2c-7.11,2-11.53,9-12.5,16-1,7.19,1.09,14.4,3.25,21.23Z"/></g><g class="cls-30"><path class="cls-31" d="M314.88,227.25c-3.87-11.67.73-26.6,13.16-30.77,5.91-1.9,13-.7,17.38,3.86,4.76,4.63,3.54,11.8,1.7,17.46a33.85,33.85,0,0,0,1.18-9c0-6.21-5.4-10.9-11.19-12-9.05-1.91-17.92,4.3-21.17,12.6a29.4,29.4,0,0,0-1.06,17.77Z"/></g><g class="cls-30"><path class="cls-31" d="M337.06,214.06c9.68-1.5,15,10.91,7.25,16.89a10,10,0,0,0-7.25-16.89Z"/></g><g class="cls-30"><path class="cls-31" d="M353.78,229.11c2.05,3.59-.61,8.93-4.71,9.46a9.57,9.57,0,0,0,4.71-9.46Z"/></g><g class="cls-30"><path class="cls-31" d="M314,231.21c1.94,9.87,10.18,18.87,20.82,18a15.15,15.15,0,0,0,4.24-.9,13.82,13.82,0,0,1-4.18,1.39c-11,1.74-20.17-7.93-20.88-18.46Z"/></g><g class="cls-30"><path class="cls-31" d="M318.69,230.78A13.84,13.84,0,0,0,337,233.51c-5.12,5.36-15,3.88-18.31-2.73Z"/></g><g class="cls-30"><path class="cls-31" d="M319.81,226.42c3.33,1.13,10.14-1.2,10.66-5.06.83,4.61-7.42,7.73-10.66,5.06Z"/></g><g class="cls-30"><path class="cls-31" d="M301.26,220.92a6.15,6.15,0,0,1-2.73-6.86,32,32,0,0,0,2.73,6.86Z"/></g><path class="cls-12" d="M185.05,217.9a10.74,10.74,0,0,0-3.74-4,1.65,1.65,0,0,0-1-.31c-.85.07-1.16,1.08-1.25,1.87q-.35,3-.68,6c-3.22-11.34-13.9-18.46-26.34-18.79a20.88,20.88,0,0,0-8,1.21,2.49,2.49,0,0,0-1.12.7c-.9,1.17.74,2.48,2.13,3a35.41,35.41,0,0,0-16.84,4.06A24.5,24.5,0,0,0,116.94,224c-2.86,7.48-.85,15.73,2.69,22.77a2.43,2.43,0,0,1,.37,2c-.26.64-1,1-1.61,1.36a8.2,8.2,0,0,0-3.72,6.7,14.49,14.49,0,0,0,2.09,7.36,18.72,18.72,0,0,0,7.13,7.56,12.71,12.71,0,0,0,10.64.92c2.88,5.92,9.91,9.77,17,9.3,6.67-.45,12.73-4.39,17-9.31S175.35,261.8,178,256c5.46-12,13.61-22.6,8.14-35.95A19.84,19.84,0,0,0,185.05,217.9Z"/><g class="cls-30"><path class="cls-31" d="M170.59,245.47c1-7.21,1.86-14.88-.73-21.83-2.53-6.79-8.84-12.38-16.3-12.78a15.41,15.41,0,0,1,5.54.76c14.29,5.37,15,21.11,11.49,33.85Z"/></g><g class="cls-30"><path class="cls-31" d="M164.89,245.05c.34-6.19-1.08-12.63-4.81-17.64-7.29-10.29-23.66-12.38-32-2.26-4.41,5.11-2,12,.67,17.37-2.22-4.05-4.59-8.74-3.39-13.52s5.33-8.25,9.76-10c17.07-6.37,32.16,9,29.72,26Z"/></g><g class="cls-30"><path class="cls-31" d="M138.77,236.75c-9,1.89-12.56,12.51-4.45,18.09a8.66,8.66,0,0,1-2.65-1.73c-6.39-6.18-1.24-16.14,7.1-16.36Z"/></g><g class="cls-30"><path class="cls-31" d="M123.9,255a9.28,9.28,0,0,0,6.83,8.29c-4.18.41-8.27-4.21-6.83-8.29Z"/></g><g class="cls-30"><path class="cls-31" d="M166.64,248.74c1.21,11.19-7.26,22.07-18.74,22.49a16.15,16.15,0,0,1-4.6-.49,18.31,18.31,0,0,0,4.56,0c11-1.22,18.64-11.22,18.78-22Z"/></g><g class="cls-30"><path class="cls-31" d="M161.53,249.31c-2.5,7.37-12.47,10.61-18.94,6.51a15.87,15.87,0,0,0,18.94-6.51Z"/></g><g class="cls-30"><path class="cls-31" d="M159.49,245.26c-2.88,2.91-9.34,2.25-11.79-1a2.86,2.86,0,0,1-.51-1.77c1.26,3.81,9.22,4.46,12.3,2.73Z"/></g><g class="cls-30"><path class="cls-31" d="M178.15,236a26.84,26.84,0,0,0,1.58-7.3,6.11,6.11,0,0,1-1.58,7.3Z"/></g><path class="cls-12" d="M251.38,246.74c3.81,2,6,6.47,6.49,10.82.5,4.64-.64,9.27-1.78,13.8a30.14,30.14,0,0,0,8.68-20c.16-4.51-1.4-9.5-5.86-11.38,4.47-2.1,11.46-1.11,16,.29a32.64,32.64,0,0,1,15.4,10.37c6.37,7.75,8.32,17.93,9.73,27.59a74.64,74.64,0,0,0,3.87-13c1.8,5.69,2.2,11.58,4.11,17.2a118.4,118.4,0,0,1,4.93,18.31c1.36,8,1.41,16.35-1,24.11,4.3-6.38,5.65-14.38,5.37-22.08a114.21,114.21,0,0,0-2.52-17.84c-.42-2.12-2-5.89-.47-7.78,1.21-1.48,4.81-2.13,6.56-2.29-1.33-7.14-1.48-14.63-3.26-21.61-1.47-5.78-3.26-11.54-6.31-16.66-7.76-13-23.12-20.3-38.26-21.15-10.22-.58-20.73,1.52-29.37,7a9.5,9.5,0,0,1-3.67,1.72,9.08,9.08,0,0,1-3.38-.41c-26.63-6.39-56.58,7.31-67.2,32.8-4.88,11.7-6.16,24.63-5.74,37.3,0-.45,5,.38,5.42.64,1.78,1,2.82,3.31,3.48,5.13a90.89,90.89,0,0,1,4.61,19,57,57,0,0,0,1.61,9.38,13.64,13.64,0,0,0,5.31,7.68c-3-4.43-3.59-10-3.72-15.33a103.15,103.15,0,0,0-.49-12.05c-.54-3.84-2-7.53-2.74-11.39-1.54-8.07-2.51-16.67.74-24.46a13.54,13.54,0,0,0,7.71,13.76,38.23,38.23,0,0,1-3-13.12,15.28,15.28,0,0,0,6.74,7.7c-3.25-1.8-2.6-14.1-2-17.33,1-5.77,5.08-11.32,9.81-14.62a20.57,20.57,0,0,0-4.45,18.87c-.86-3.1,5.38-10.1,7.39-12a34.39,34.39,0,0,1,11.3-6.68,33.07,33.07,0,0,1,28,2.28c1-4.55,6.94-6.74,11.22-4.89C250.87,246.48,251.13,246.61,251.38,246.74Z"/><g class="cls-30"><path class="cls-31" d="M238.54,247.65c-2.62-11.3,3.67-22.19,14.5-26.15,17.07-6.06,40.6,1.24,52.32,14.78,8.71,10.56,12,24.64,12.47,38-.95-13.29-4.41-27.07-13.13-37.45-11.57-13.14-34.64-20.3-51.39-14.62a22.23,22.23,0,0,0-14.77,25.43Z"/></g><g class="cls-30"><path class="cls-31" d="M263.3,243.44c-5-6.48-15.91-6.31-21.31-.39a15.48,15.48,0,0,0-2.14,2.75,13.31,13.31,0,0,1,11.08-8.13c4.67-.35,10.15,1.37,12.37,5.77Z"/></g><g class="cls-30"><path class="cls-31" d="M241.77,238.33c14.92-14.61,39.86-9.63,52.82,5.13a34.23,34.23,0,0,1,8.51,17.39A36.23,36.23,0,0,0,294,244c-13.06-14.21-36.94-19.08-52.26-5.65Z"/></g><g class="cls-30"><path class="cls-31" d="M244.1,232.63c6-5.68,14.71-7.41,22.77-7.53,16.68-.32,32.7,9,40.05,24.07a42.13,42.13,0,0,1,4.61,23.74,43.86,43.86,0,0,0-5.29-23.38c-7.41-14.62-23.08-23.72-39.37-23.67-8,0-16.5,1.45-22.77,6.77Z"/></g><g class="cls-30"><path class="cls-31" d="M236.32,234.1a56.88,56.88,0,0,0-12.46-6.51c-13.4-3.8-29,1.14-38.44,11.18-13,13.8-17,33.77-17.12,52.23a90,90,0,0,1,3-28.08c3.68-13.58,11.78-27,24.91-33.21,8.56-4,18.69-5.5,27.8-2.58a39.56,39.56,0,0,1,6.36,3.14,35.62,35.62,0,0,1,5.94,3.83Z"/></g><g class="cls-30"><path class="cls-31" d="M193,256.63c3.1-11.63,15.78-19.36,27.57-17.42,6.15.94,11.61,4.36,16.43,8.11a54.12,54.12,0,0,0-11.77-6.09c-12.66-4.57-27.71,2.77-32.23,15.4Z"/></g><g class="cls-30"><path class="cls-31" d="M183.36,274.55c-8.06-21.19,14.63-43.74,35.88-39.39a28.2,28.2,0,0,1,17.66,10.73c-6.66-8.13-17.87-11.72-28.1-9.91-16.89,3.21-31.11,21.3-25.44,38.57Z"/></g><g class="cls-30"><path class="cls-31" d="M179.07,279c-6.53-18.47,3.24-42.33,22.94-47.54a29.24,29.24,0,0,1,19.17.82,30.53,30.53,0,0,0-19-.08c-19.21,5.57-28.44,28.4-23.16,46.8Z"/></g><g class="cls-30"><path class="cls-31" d="M230,224.63a8.72,8.72,0,0,1,7,3c.61.66.94,1.4,1.72,1.79-.89,0-1.62-.73-2.25-1.22a23.38,23.38,0,0,0-6.44-3.56Z"/></g><path class="cls-21" d="M78.16,306.53l8.26-6.71,5,1.56-3.44-3,2.56-1.76c44.64,3.61,145.76,36.79,167.66,57.3,30.09-31.78,101-64,150.78-76l2.14,2.51-8,4.43,10.59-2.94L419.9,291l-51,42.44-108.13,34.5L80.56,317.47Z"/><path class="cls-31" d="M72.44,309.5l3.91-3.18c59,6.62,133,30.36,175.22,53.5l11.73-1.06c36.6-28.8,102.47-63.4,157.31-70.94L424.1,291,264,365.12H251.57Z"/><path class="cls-32" d="M236.44,360.42l-.12-2.58,3.53-5.9c13,6.3,23.56,5,35.07-3.26l3,5.27-1.66,4.58C263.06,366.75,249.8,367.27,236.44,360.42Z"/><path class="cls-32" d="M72.44,309.5l18.12,182,91.3,12.71,132.94,1.88,105.81-27.3L424.1,291c-50.45,8.53-108.35,33.33-156.19,70.4-6.56,17.61-14.1,14.89-22.15,1.41C194.13,334.63,133,317.56,72.44,309.5Z"/><path class="cls-33" d="M80.56,316.73c50.11,7.53,97.07,19.43,148.91,44l6.85,144c-44.61-4.64-90.61-11.6-140.55-20.66Z"/><path class="cls-34" d="M282.71,356.18l8.07,149.54,124.4-32.25,3.34-175.76C369.59,306,324.39,328,282.71,356.18Z"/><path class="cls-32" d="M94.94,333.44l15,139.68,107.85,21.64L212.3,366.29C179,349.76,139,339,94.94,333.44Z"/><path class="cls-32" d="M290.78,358.83l7.48,135.93,111.63-28.7,2.47-159.74C366,315.45,324.67,334,290.78,358.83Z"/><path class="cls-31" d="M297.26,376.65l6.49,89.41,100.61-29.88,1.57-100.54C373.31,343.32,335.52,358.4,297.26,376.65Z"/><polygon class="cls-21" points="303.14 457.59 303.75 466.06 316.89 462.16 405.37 352.7 405.93 335.64 394.91 339.8 303.14 457.59"/><path class="cls-21" d="M404.36,436.18V427.6l-99.05-53.5-8.05,2.55.54,7.36s99.12,54.37,99.77,54.18Z"/><polygon class="cls-26" points="303.75 466.06 303.42 462.76 403.1 336.71 405.93 335.64 405.63 344.63 309.64 464.31 303.75 466.06"/><path class="cls-26" d="M297.26,376.65l.21,2.83S401,437.18,401.63,437l2.73-.81V432L301.05,375.45Z"/><polygon class="cls-21" points="335.16 359.74 348.31 452.82 371.11 446.05 359.04 350.21 335.16 359.74"/><polygon class="cls-21" points="299.6 412.87 404.36 377.82 404.36 404.41 301.28 435.97 299.6 412.87"/><polygon class="cls-26" points="341.05 357.28 353.88 451.17 366.24 447.47 353.16 352.56 341.05 357.28"/><polygon class="cls-26" points="299.93 417.35 404.36 384.01 404.36 398.53 300.84 429.98 299.93 417.35"/><path class="cls-35" d="M272.92,361.77c0,.59-.07,1.3-.08,2.21,0,3-.06,6.1-.15,9.15-.3,9.49-2.65,19.26-2.11,28.58.66,11.64,1.5,23.27,2.43,34.89s2,23.24,3.11,34.85c1.13,11.35,1.4,23.51,3.9,34.62,5.57-.32,11.36-.34,17-.26,5.24.07,12.67,1.57,17.8.25l105.81-27.3c.22-11.82,3.68-104.15,1.43-104.38a43.74,43.74,0,0,0-18.24,2c-3.87,1.29-9.87,3.21-12.28,6.66-1.88,2.69-1.09,7.37,2.13,8.05-3.21,1.85-6.15,5.07-5.83,8.76s5.62,6.35,7.95,3.46a7.45,7.45,0,0,0,8.51,12c-2.93.07-4.73,4-3.21,6.52s5.29,3,7.74,1.41c-17.73,16.48-39.23,28.24-60.48,39.84-15.28-36.2-26.28-74-37.24-111.76a4.42,4.42,0,0,1,1.93-5.83l36.73-31.38c-16.43,4.4-33.49,15.22-48,24.06q-8.42,5.11-16.55,10.67c-3.88,2.65-7.77,4.43-10.36,8.41C273.52,359.24,273.08,359.86,272.92,361.77Z"/><path class="cls-35" d="M175.41,342.12c.57-2.86,1.15-5.74,1.67-8.67-7.19-4-17-5.6-24.91-7.81Q139.09,322,125.85,319q-26.47-6-53.41-9.52,1.47,14.82,3,29.65,3.21,32.27,6.43,64.53c1.09,11,2.33,22.05,3.46,33,0-.09,10.44-1.66,11.5-1.87a77.83,77.83,0,0,0,12-3.42c3.48-1.31,12.64-7.13,6.41-11,1.93-1.76,4.25-3.17,5.67-5.46,2.54-4.07-3.4-14.55-6.08-10.85,2.4-3.32,4.06-7.4,3.54-11.46s-3.63-7.94-7.7-8.4q.6-13.22,1.19-26.44a3.45,3.45,0,0,1,3.8-4,175.06,175.06,0,0,1,20.59-1.63c-5.67,18.54.19,40.1,14.47,53.22a71.73,71.73,0,0,1,2.48-19.12c6.75,6.4,13.84,13,22.73,15.77a128,128,0,0,1-4-34.58C172,358.68,173.72,350.47,175.41,342.12Z"/><path class="cls-36" d="M236.32,357.84,243.13,505l42.17,1L277.9,354C261.77,363.94,254.47,363.94,236.32,357.84Z"/><line class="cls-37" x1="239.34" y1="358.83" x2="246.3" y2="505.12"/><line class="cls-37" x1="282.71" y1="506.06" x2="275.18" y2="356.18"/><polygon class="cls-32" points="242.26 413.43 244.1 454.41 280.18 453.18 277.9 411.37 242.26 413.43"/><polygon class="cls-21" points="242.47 418.05 242.26 413.43 246.83 413.16 279.9 448.07 280.18 453.18 275.77 453.18 242.47 418.05"/><polygon class="cls-21" points="244.1 454.41 243.94 450.76 274.46 411.57 277.9 411.37 278.13 415.71 248.27 454.27 244.1 454.41"/><polygon class="cls-26" points="276.71 411.44 277.9 411.37 277.99 413.16 246.18 454.34 244.1 454.41 244.1 452.82 276.71 411.44"/><polygon class="cls-26" points="242.26 413.43 242.33 415.24 278.71 453.24 280.18 453.18 280.18 450.97 244.1 413.43 242.26 413.43"/><polygon class="cls-21" points="255.42 412.67 257.4 453.96 266.71 453.64 264.6 412.14 255.42 412.67"/><polygon class="cls-21" points="242.98 429.47 278.78 427.6 279.28 436.66 243.4 438.76 242.98 429.47"/><polygon class="cls-26" points="257.77 412.53 260.12 453.86 264.24 453.72 262.12 412.29 257.77 412.53"/><polygon class="cls-26" points="243.09 431.94 243.28 436.18 279.03 433.77 278.91 429.98 243.09 431.94"/><path class="cls-23" d="M78,424.75c-1.95-.06-4.29-3.6-4.55-4.92A5.76,5.76,0,0,1,76,414a6.2,6.2,0,0,1-1.89-11c-1.87-.46-3-2.58-2.85-4.5a8.78,8.78,0,0,1,2.59-5.07c4.88-5.28,12.5-7,19.4-5.66a6.17,6.17,0,0,1,4.53,3.17c1,2.19,0,3.28-2.2,3.67a54,54,0,0,0-13.18,4.21,8.11,8.11,0,0,0-2.74,1.82,116.59,116.59,0,0,1,12.93-3c4-.73,8.41-.81,12.28.76a7.85,7.85,0,0,1,3.41,2.39,4,4,0,0,1,.59,4c-1,2.23-4,2.44-6.51,2.52a47.22,47.22,0,0,0-20,5.18c5.88-1.27,11.91-2.66,17.87-3.43a12.44,12.44,0,0,1,6.56.46c2,.89,3.64,3.14,3.07,5.29a5,5,0,0,1-3.34,3.17,18,18,0,0,1-4.74.65,55.9,55.9,0,0,0-9.19,1.31,35.54,35.54,0,0,0-8.2,2.77A49.87,49.87,0,0,1,97,421a9.68,9.68,0,0,1,3.63.59,3.58,3.58,0,0,1,2.25,2.71,3.68,3.68,0,0,1-2,3.36,11.73,11.73,0,0,1-4,1.14,88.78,88.78,0,0,0-11.78,2.89,16.44,16.44,0,0,1-3.45.86c-2.4.23-3.88-1-4.87-3.1-.78-1.67-.25-4.18,1.67-4.82A1.59,1.59,0,0,1,78,424.75Z"/><g class="cls-25"><path class="cls-26" d="M72.44,404.3a18.17,18.17,0,0,1,11.45-5.05c-3.94,1.62-7.6,3.23-11.45,5.05Z"/></g><g class="cls-25"><path class="cls-26" d="M74.7,415.48a17.37,17.37,0,0,1,11.72-4.11c-4,1.25-7.78,2.56-11.72,4.11Z"/></g><g class="cls-25"><path class="cls-26" d="M76.35,427.25c.21-1.46,1.6-2.47,2.81-3.12a20.63,20.63,0,0,1,12.28-2.77,46.85,46.85,0,0,0-11.93,3.47,5.5,5.5,0,0,0-3.16,2.42Z"/></g><path class="cls-23" d="M432.14,404.88c1.59-.64,2.3-4.66,2.06-6a6.16,6.16,0,0,0-4.1-4.76,6.1,6.1,0,0,0,2-6,6.78,6.78,0,0,0-4.2-5c1.38-1,1.57-3.33.79-5.09a9.19,9.19,0,0,0-3.87-4,16.91,16.91,0,0,0-17.92.53,5.53,5.53,0,0,0-2.63,4.34c-.09,2.37,1.16,3.06,3.07,2.78a43.25,43.25,0,0,1,12.29,0,7.14,7.14,0,0,1,2.89.88,92.67,92.67,0,0,0-11.68,1.06,17.24,17.24,0,0,0-9.85,4.41,7,7,0,0,0-2,3.27,4.47,4.47,0,0,0,.88,3.91c1.62,1.78,4.18,1.07,6.23.4a37.56,37.56,0,0,1,18.27-1.16c-5.28.57-10.72,1.08-15.9,2.16a9.62,9.62,0,0,0-5.24,2.41,5,5,0,0,0-.7,5.89,4.66,4.66,0,0,0,3.84,2,13.9,13.9,0,0,0,4.12-.82,43.41,43.41,0,0,1,8-1.53,28.09,28.09,0,0,1,7.71.13,38.3,38.3,0,0,0-11,2.38,7.53,7.53,0,0,0-2.78,1.64,3.52,3.52,0,0,0-.92,3.23,3.78,3.78,0,0,0,2.8,2.55,9.34,9.34,0,0,0,3.65-.12,69.21,69.21,0,0,1,10.69-.83,13.6,13.6,0,0,0,3.13-.24c2.06-.51,2.87-2.09,2.95-4.37.07-1.81-1.23-4-3-4A1.22,1.22,0,0,0,432.14,404.88Z"/><g class="cls-25"><path class="cls-26" d="M429.68,384c-3.8-.52-7.33-.95-11.16-1.3a15,15,0,0,1,11.16,1.3Z"/></g><g class="cls-25"><path class="cls-26" d="M431.66,395.19c-3.78-.24-7.26-.37-11.05-.33a14,14,0,0,1,11.05.33Z"/></g><g class="cls-25"><path class="cls-26" d="M434.36,406.74a5,5,0,0,0-3.33-1.29,36.79,36.79,0,0,0-11.13.3c3-1.93,12.53-2.59,14.46,1Z"/></g><path class="cls-26" d="M149.06,316.73l-8.62,5.79c-8.15,18.41-11,40.57-6.9,58.39l13.65-15.79c2.42,6.93,7.61,13.12,14.34,18.89-1.17-19.06.78-37,8.14-53.17l7.67-6.11Z"/><path class="cls-38" d="M149.06,316.73l-2.95,2c6.58,1.85,13.08,3.89,19.5,6.25-5,3.07-7.38,8.72-9.39,13.94a79.66,79.66,0,0,0-4.52,22.38,32.2,32.2,0,0,0-3.42-7.65q-6.42,6.92-12.29,14.3c-1.53,1.92-3.29,4.19-3.5,6.74-.1,1.2,1.61,5.59,1,6.24l13.65-15.79c2.42,6.93,7.61,13.12,14.34,18.89-1.17-19.06.78-37,8.14-53.17l7.67-6.11Z"/></g><path class="cls-39" d="M325.24,149c-1.95,7.71-7.14,14.42-13.55,19.17s-14.55,7.46-22.43,9.33a88.53,88.53,0,0,1-12.1,2c-1,.09-11.87.26-11.89.31l-6.48,26.7q-1.19-13.84-1.64-27.72A176.74,176.74,0,0,1,211.81,171c-4.92-1.53-9.86-3.32-14-6.4s-7.41-7.65-7.85-12.79,2.5-10.68,7.42-12.24a28.11,28.11,0,0,1-.38-23.8c3.87-8.45,11.56-15.38,19.36-20.15,9-5.53,19.46-8.56,30-9.79a64.88,64.88,0,0,1,24.59,1.51,42.62,42.62,0,0,1,11.29,4.85c3.76,2.35,6.2,5.79,9,9.14,6.63-3.5,15.46-.37,19.77,5.77s4.64,14.41,2.52,21.6c4.29-.4,8.48,2.37,10.56,6.16s2.29,8.36,1.46,12.6C325.48,148,325.37,148.46,325.24,149Z"/><path class="cls-39" d="M58.89,157.84c.76,20,25.79,35.62,53.51,36.84l8.15-.31a77.8,77.8,0,0,0,16-3.71L172.32,219l-23.6-33.9c13.21-7.69,21.86-19.11,21.39-31.49-.82-21.53-26.38-38-57.1-36.87S58.07,136.31,58.89,157.84Z"/><path class="cls-9" d="M117.54,166.22c-6.68,0-18.9-5.63-32.36-11.68v-10.1c13-7.33,25.76-14.41,32.36-14.62C121.19,142,120.73,154.38,117.54,166.22Z"/><path class="cls-8" d="M85.18,144.44v10.1l3.91,1.75a46,46,0,0,0,0-14Z"/><path class="cls-8" d="M117.54,129.82c3.32,10.1,3.59,24.18,0,36.4a27.67,27.67,0,0,1-8.62-1.77,67,67,0,0,0,0-32.3A27.61,27.61,0,0,1,117.54,129.82Z"/><line class="cls-40" x1="124.42" y1="137.25" x2="139.06" y2="132.21"/><line class="cls-40" x1="125.01" y1="144.43" x2="141.44" y2="143.18"/><line class="cls-40" x1="125.18" y1="153" x2="140.79" y2="153"/><line class="cls-40" x1="125.01" y1="160.59" x2="139.88" y2="164.82"/><path class="cls-39" d="M467,159.18a45.7,45.7,0,0,1-64,31.25l-24.8,25.74L393.05,184a45.65,45.65,0,1,1,74-24.85Z"/><path class="cls-41" d="M389.85,143.74c22.11-25.52,44.26-24.37,66.47,0C435.92,170,413.23,170.82,389.85,143.74Z"/><circle class="cls-42" cx="423.09" cy="144.38" r="16.62" transform="translate(184.72 522.58) rotate(-76.62)"/><circle class="cls-43" cx="423.09" cy="144.38" r="5.87"/><path class="cls-44" d="M389.85,143.74c12.61-17.72,32.65-27.31,52.29-13.82a59.88,59.88,0,0,1,14.18,13.82,93.38,93.38,0,0,0-15.42-11.83c-19.71-11.75-36.19-2.56-51,11.83Z"/><path class="cls-44" d="M404.68,157.26c13.35,7.25,24.63,7.24,38,0-11.17,9.89-26.81,9.88-38,0Z"/><line class="cls-45" x1="415.54" y1="162.8" x2="414.09" y2="170.94"/><line class="cls-45" x1="424.87" y1="163.74" x2="424.87" y2="172.69"/><line class="cls-45" x1="433.89" y1="162.12" x2="435.25" y2="170.41"/><line class="cls-45" x1="411.89" y1="117.05" x2="414.72" y2="125.68"/><line class="cls-45" x1="422.49" y1="125.03" x2="422.49" y2="115.33"/><line class="cls-45" x1="429.64" y1="125.85" x2="432.12" y2="117.05"/><polygon class="cls-46" points="149 87.35 94.1 87.35 115.98 67.59 96.93 47.82 149 47.82 149 87.35"/><polygon class="cls-43" points="123.04 72.26 149 87.35 149 68.39 123.04 72.26"/><polygon class="cls-46" points="356.96 87.35 411.82 87.35 389.95 67.59 409 47.82 356.96 47.82 356.96 87.35"/><polygon class="cls-43" points="382.9 72.26 356.96 87.35 356.96 68.71 382.9 72.26"/><path class="cls-46" d="M382.81,72.26c-88.68-13.4-175.45-14.14-259.77,0V29.82c83.52-14.28,170.49-13,259.77,0Z"/></g><g id="TEXTS"><path class="cls-21" d="M166.83,44.28c-2.71.31-4.07.47-6.77.81.35,2.85.52,4.28.88,7.13,3-.37,4.48-.55,7.47-.89.1.86.14,1.29.24,2.15-3.87.44-5.8.67-9.67,1.16l-2.5-19.77c3.81-.49,5.72-.71,9.54-1.15.1.86.14,1.29.24,2.15l-7.24.85c.31,2.5.47,3.75.78,6.25,2.71-.33,4.07-.49,6.78-.8Z"/><path class="cls-21" d="M171.54,53.16c-.87-7.93-1.3-11.89-2.17-19.81l2.5-.27c2.69,3.77,4,5.66,6.65,9.45a56.38,56.38,0,0,1,3.74,6.15l.05,0c-.46-2.63-.74-5-1-8.12-.31-3.33-.47-5-.78-8.31l2.15-.2c.73,7.94,1.09,11.91,1.82,19.85l-2.25.21c-2.57-3.82-3.87-5.73-6.5-9.52a72.33,72.33,0,0,1-4-6.28l-.07,0c.4,2.49.7,4.86,1,8.15l.9,8.47Z"/><path class="cls-21" d="M201.43,49.61a14.47,14.47,0,0,1-5.23,1.47,8.33,8.33,0,0,1-6.67-2.1,11.23,11.23,0,0,1-3.06-7.19c-.5-5.91,2.75-10.58,8.69-11a9.87,9.87,0,0,1,4.48.6l-.4,2.13a8.11,8.11,0,0,0-4-.57c-4.3.32-6.84,3.57-6.42,8.55s3.32,7.78,7.35,7.48a6.59,6.59,0,0,0,2.94-.75c-.17-2.37-.26-3.56-.43-5.93l-3.54.26L195,40.47c2.3-.18,3.45-.26,5.76-.42C201,43.87,201.16,45.78,201.43,49.61Z"/><path class="cls-21" d="M203.62,30.38l2.29-.14c.43,7.09.65,10.64,1.08,17.73,3-.18,4.44-.26,7.4-.41.05.86.07,1.29.11,2.15-3.84.2-5.76.31-9.6.56C204.38,42.31,204.13,38.33,203.62,30.38Z"/><path class="cls-21" d="M218.32,29.58l.9,19.9-2.23.11c-.38-8-.57-12-1-19.91Z"/><path class="cls-21" d="M222.68,46.2a7.27,7.27,0,0,0,4.06,1.15,3.3,3.3,0,0,0,3.53-3.52c-.06-1.86-1-2.95-3.42-3.85-2.84-1.08-4.73-2.67-4.85-5.47a5.32,5.32,0,0,1,5.52-5.62,7.27,7.27,0,0,1,3.95.86c-.23.84-.34,1.27-.57,2.11a6.37,6.37,0,0,0-3.39-.84,3,3,0,0,0-3.22,3.1c.07,1.86,1.18,2.74,3.63,3.72,3,1.21,4.56,2.79,4.64,5.72s-1.82,5.78-5.9,5.92a8.14,8.14,0,0,1-4.46-1.1Z"/><path class="cls-21" d="M237.59,29c.07,3.33.1,5,.17,8.34,3.39-.07,5.09-.1,8.48-.13,0-3.33,0-5-.07-8.33l2.32,0c0,8,.07,12,.11,19.93h-2.25c0-3.73,0-5.6-.09-9.34-3.38,0-5.07.05-8.46.12.07,3.74.11,5.61.19,9.34l-2.23.05c-.19-8-.28-12-.46-19.92Z"/><path class="cls-21" d="M257.62,45.6a7.25,7.25,0,0,0,4,1.34,3.3,3.3,0,0,0,3.68-3.35c0-1.86-.9-3-3.24-4-2.78-1.21-4.6-2.88-4.58-5.69,0-3.1,2.32-5.4,5.77-5.35a7.23,7.23,0,0,1,3.91,1c-.27.83-.4,1.25-.67,2.09a6.33,6.33,0,0,0-3.35-1,3,3,0,0,0-3.36,2.95c0,1.86,1,2.78,3.46,3.88,2.94,1.34,4.42,3,4.36,5.93s-2.09,5.68-6.16,5.64a8.13,8.13,0,0,1-4.4-1.31C257.28,46.9,257.39,46.47,257.62,45.6Z"/><path class="cls-21" d="M282.66,48.66a10,10,0,0,1-4.6.78c-4.87-.16-8.46-3.78-8.31-10.32.13-6.23,4-10.39,9.5-10.2a8.43,8.43,0,0,1,4.17,1L282.79,32a7.44,7.44,0,0,0-3.54-1c-4.15-.14-7,2.78-7.11,8-.13,4.88,2.24,8.06,6.45,8.21a8.09,8.09,0,0,0,3.68-.7C282.43,47.43,282.5,47.84,282.66,48.66Z"/><path class="cls-21" d="M288.58,29.62c-.16,3.33-.24,5-.39,8.33,3.39.16,5.09.24,8.48.44.2-3.33.29-5,.48-8.32l2.32.13c-.48,8-.72,11.94-1.21,19.89L296,50c.21-3.73.32-5.6.54-9.33-3.39-.19-5.08-.28-8.46-.44-.18,3.74-.26,5.6-.44,9.34l-2.23-.1c.35-8,.52-12,.87-19.91Z"/><path class="cls-21" d="M317.74,41.32c-.58,6.83-4.5,10.14-8.9,9.82s-7.49-4.62-7.1-10.64c.4-6.31,4.17-10.22,8.9-9.87S318.25,35.43,317.74,41.32Zm-13.59-.72c-.28,4.25,1.46,8.19,5,8.45s5.85-3.31,6.22-7.81c.32-4-1.17-8.24-5-8.52S304.45,36.24,304.15,40.6Z"/><path class="cls-21" d="M335.6,43.06c-.75,6.82-4.74,10-9.14,9.6s-7.39-4.79-6.86-10.79c.56-6.31,4.42-10.13,9.14-9.66S336.24,37.18,335.6,43.06ZM322,42c-.39,4.24,1.26,8.22,4.78,8.57s5.92-3.17,6.4-7.67c.42-3.94-1-8.26-4.77-8.63S322.42,37.67,322,42Z"/><path class="cls-21" d="M339.62,33.69l2.28.26-2,17.65c2.94.34,4.42.52,7.37.9-.11.85-.17,1.28-.28,2.14-3.82-.49-5.73-.72-9.56-1.15C338.27,45.57,338.72,41.61,339.62,33.69Z"/><path class="cls-9" d="M405.56,173.53a11.6,11.6,0,0,1,1.6.89,2.94,2.94,0,0,1,1.47,1.68,2.35,2.35,0,0,1-.23,1.69,2.12,2.12,0,0,1-2.37,1.15l0,0a2.2,2.2,0,0,1,.25,2.09,10.76,10.76,0,0,0-.47,2.38c-.44-.23-.65-.35-1.08-.59a8.29,8.29,0,0,1,.47-2.05c.35-1.13.19-1.73-.62-2.3l-.86-.56-2.06,3-1-.69Zm-1.39,3.73c.36.25.54.37.91.6a1.6,1.6,0,1,0,1.68-2.7,4.23,4.23,0,0,0-.85-.45Z"/><path class="cls-9" d="M412.61,182.05c-1.19-.41-1.79-.64-2.95-1.15l-1.23,2.79a31.19,31.19,0,0,0,3.59,1.37l-.29.87A33.67,33.67,0,0,1,407,184l3.63-7.63a26.19,26.19,0,0,0,3.58,1.43c-.12.35-.18.52-.29.87a26.81,26.81,0,0,1-2.82-1.08L410,180.08a28,28,0,0,0,2.88,1.11C412.79,181.53,412.73,181.7,412.61,182.05Z"/><path class="cls-9" d="M415.22,184.16c-.59,1-.9,1.42-1.54,2.35l-1.15-.33a50,50,0,0,0,4.77-7.48l1.08.21a51.16,51.16,0,0,0,1.49,8.75c-.49,0-.73-.08-1.22-.15-.24-1.1-.34-1.66-.52-2.76C417,184.56,416.37,184.44,415.22,184.16Zm2.83-.29c-.16-1-.22-1.52-.33-2.53a15.1,15.1,0,0,1-.09-1.59h0c-.2.47-.43.95-.68,1.42-.5.89-.76,1.33-1.3,2.21C416.59,183.61,417.08,183.71,418.05,183.87Z"/><path class="cls-9" d="M421.78,179.46a18.55,18.55,0,0,1,1.94-.1,4.18,4.18,0,0,1,2.92,1,4.39,4.39,0,0,1,1.36,2.91,4.23,4.23,0,0,1-.87,3.39,5,5,0,0,1-3.86,1.33,13,13,0,0,1-2.09-.2Zm.59,7.52a6.78,6.78,0,0,0,1.14.1c2.41,0,3.61-1.44,3.43-3.7-.16-2-1.22-3.13-3.19-3.15a5.84,5.84,0,0,0-1.09.08C422.54,183,422.49,184.31,422.37,187Z"/><path class="cls-9" d="M429.62,178.93c.6,3.33.91,5,1.51,8.32l-1.14.19c-.51-3.35-.76-5-1.26-8.36C429.09,179,429.27,179,429.62,178.93Z"/><path class="cls-9" d="M433.11,186.84c-.77-3.29-1.16-4.94-1.92-8.23l1-.24a31.93,31.93,0,0,0,3.58,3.37c.89.74,1.67,1.4,2.37,2l0,0a32.43,32.43,0,0,1-1.38-3.19c-.52-1.32-.78-2-1.29-3.29l.81-.33,3.29,7.79-1.1.44a32.78,32.78,0,0,1-4-3.16,16,16,0,0,1-2.16-2.32l0,0c.32,1,.6,2,1,3.35l.92,3.5Z"/><path class="cls-9" d="M447.23,180a7.57,7.57,0,0,1-2.11,2,4.33,4.33,0,0,1-3.51.7,4,4,0,0,1-2.45-2.3,4.33,4.33,0,0,1,1.58-5.83,4.81,4.81,0,0,1,1.74-.71c.13.35.2.52.32.87a4,4,0,0,0-1.59.62,3.2,3.2,0,0,0-1.07,4.51,3,3,0,0,0,4.58,1.33,3.63,3.63,0,0,0,1.18-1L444.48,178c-.57.39-.86.57-1.44.93l-.46-.75c.92-.56,1.37-.87,2.26-1.51Z"/><path class="cls-9" d="M77.85,162.75l1,.65-4.73,7.32c1.47.95,2.21,1.4,3.72,2.28l-.52.91c-2-1.15-3-1.76-4.9-3Z"/><path class="cls-9" d="M84.38,166.66l-4.61,8.62-1.17-.63,4.74-8.55Z"/><path class="cls-9" d="M82.36,174.9a4.56,4.56,0,0,0,1.84,1.59c1.21.57,2.21.26,2.6-.65s.09-1.54-.89-2.53c-1.17-1.18-1.69-2.36-1.07-3.59a2.78,2.78,0,0,1,3.85-1.1,4.2,4.2,0,0,1,1.65,1.25l-.71.82a3.68,3.68,0,0,0-1.41-1.14,1.55,1.55,0,0,0-2.21.58c-.4.82-.08,1.49.91,2.51,1.21,1.25,1.69,2.31,1.13,3.63s-2.18,2.16-4.38,1.13a5.18,5.18,0,0,1-2.08-1.71Z"/><path class="cls-9" d="M93.53,172c-1-.39-1.57-.59-2.61-1l.41-1a64.32,64.32,0,0,0,6.32,2.28l-.32,1c-1.08-.33-1.61-.51-2.67-.88-1.16,3.28-1.73,4.92-2.89,8.2l-1.26-.45Z"/><path class="cls-9" d="M102,178.76c-1.47-.34-2.2-.52-3.65-.93l-1,3.39c1.69.48,2.54.69,4.24,1.08l-.23,1c-2.24-.51-3.36-.8-5.56-1.45l2.78-9.37c1.88.56,2.83.81,4.73,1.24l-.23,1c-1.47-.33-2.21-.52-3.66-.93l-.83,3c1.43.4,2.15.58,3.59.92Z"/><path class="cls-9" d="M103.06,183.69l2-9.57,1.25.24c.78,2.16,1.2,3.24,2.13,5.37.54,1.24,1,2.34,1.32,3.39h0c0-1.31.17-2.49.37-4s.31-2.44.52-4.06l1.09.13-1.1,9.71-1.33-.16c-1-2.13-1.51-3.21-2.39-5.36a24.21,24.21,0,0,1-1.16-3.53h0c-.16,1.22-.35,2.38-.66,4s-.47,2.46-.78,4.1Z"/><path class="cls-9" d="M115,175.48l-.7,9.75-1.31-.11c.33-3.89.5-5.84.84-9.73Z"/><path class="cls-9" d="M116.56,185.36c.18-3.9.26-5.86.43-9.76l1.29,0c1.11,2,1.7,3,3,5,.73,1.14,1.33,2.15,1.84,3.14l0,0a39.79,39.79,0,0,1-.27-4c0-1.63-.08-2.45-.13-4.08l1.11,0c.18,3.9.27,5.85.44,9.76l-1.34,0c-1.37-1.95-2-2.93-3.22-4.93a22.52,22.52,0,0,1-1.71-3.29h0c0,1.24,0,2.41,0,4s-.07,2.51-.12,4.18Z"/><path class="cls-9" d="M134.35,183.86a9,9,0,0,1-3.07,1,5.13,5.13,0,0,1-4-.88,4.84,4.84,0,0,1-1.65-3.53,5,5,0,0,1,4.61-5.51,5.69,5.69,0,0,1,2.33.11c0,.42-.07.64-.12,1.06a5,5,0,0,0-2.1-.12,3.7,3.7,0,0,0-3.4,4.31,3.55,3.55,0,0,0,4.25,3.52,4.21,4.21,0,0,0,1.71-.51c-.17-1.15-.26-1.72-.43-2.88-.8.12-1.19.18-2,.28l-.13-1c1.28-.16,1.91-.25,3.19-.46C133.89,181.08,134,182,134.35,183.86Z"/><text class="cls-47" transform="translate(218.61 144.38)">HEL<tspan class="cls-48" x="41.12" y="0">L</tspan><tspan x="52.14" y="0">O!</tspan></text></g></g></svg>