<svg xmlns="http://www.w3.org/2000/svg" xmlns:xlink="http://www.w3.org/1999/xlink" viewBox="0 0 500 500"><defs><style>.cls-1,.cls-16,.cls-18,.cls-37,.cls-40,.cls-45,.cls-6,.cls-7,.cls-8{fill:none;}.cls-2{isolation:isolate;}.cls-19,.cls-3{fill:#b1e5e1;}.cls-4{clip-path:url(#clip-path);}.cls-17,.cls-20,.cls-21,.cls-39,.cls-41,.cls-5{fill:#fff;}.cls-5{opacity:0.81;}.cls-41,.cls-6,.cls-7,.cls-8{stroke:#6da09c;}.cls-6,.cls-8{stroke-linejoin:round;}.cls-40,.cls-6{stroke-width:2px;}.cls-16,.cls-17,.cls-18,.cls-29,.cls-37,.cls-39,.cls-40,.cls-41,.cls-45,.cls-7{stroke-miterlimit:10;}.cls-7{stroke-width:4px;}.cls-8{stroke-width:5px;}.cls-22,.cls-9{fill:#8fc6c3;}.cls-10,.cls-34,.cls-47{fill:#6da09c;}.cls-11{fill:#537a7c;}.cls-12,.cls-14,.cls-15,.cls-19,.cls-22,.cls-24,.cls-25,.cls-28,.cls-35,.cls-38{mix-blend-mode:multiply;}.cls-12{opacity:0.42;}.cls-13,.cls-14{fill:#313151;}.cls-14,.cls-15{opacity:0.34;}.cls-16,.cls-17,.cls-18{stroke:#537a7c;}.cls-18{stroke-width:0.5px;}.cls-20{opacity:0.43;}.cls-22{opacity:0.47;}.cls-23,.cls-24,.cls-28{fill:#ffa194;}.cls-24,.cls-33{opacity:0.56;}.cls-25,.cls-28{opacity:0.65;}.cls-26{fill:#f43434;}.cls-27{fill:#362629;}.cls-29{fill:#8c1524;stroke:#f43434;}.cls-30{opacity:0.58;}.cls-31{fill:#4e72aa;}.cls-32,.cls-35{fill:#2e3971;}.cls-33,.cls-36{fill:#1b1b2d;}.cls-34{opacity:0.64;}.cls-35{opacity:0.54;}.cls-37{stroke:#2e3971;}.cls-38{fill:#c52429;opacity:0.46;}.cls-39{stroke:#8fc6c3;}.cls-40{stroke:#b1e5e1;}.cls-40,.cls-45{stroke-linecap:round;}.cls-42{fill:#729b82;}.cls-43{fill:#485e48;}.cls-44{fill:#47433a;}.cls-45{stroke:#47433a;}.cls-46{fill:#007456;}.cls-47{font-size:25.45px;font-family:MyriadPro-Regular, Myriad Pro;}.cls-48{letter-spacing:-0.04em;}</style><clipPath id="clip-path"><rect class="cls-1" width="500" height="500"/></clipPath></defs><g class="cls-2"><g id="BACKGROUND"><rect class="cls-3" width="500" height="500"/></g><g id="OBJECTS"><g class="cls-4"><path class="cls-5" d="M-2.62,434.49q.36-22.53,1.11-45.05c.12-3.66.35-7.59,2.6-10.47s7.32-3.78,9.4-.77C5,367.12,1.77,349.44,7.61,337.87c3.26-6.47,11.74-10.87,18-7.2-5-13.33-3.67-28.54,1.92-41.62s15.24-24.17,26.4-33c14-11,30.86-18.91,48.62-20s36.34,5.15,48.16,18.45c-1.62-1.83.93-11.73,1.38-14a100,100,0,0,1,4.76-15.61A102.65,102.65,0,0,1,168.13,202a95.8,95.8,0,0,1,40.69-33.49c32.13-13.91,78-12,104.14,12.82a86,86,0,0,1,25.93,70.2c.53-5.11,15.78-10.59,19.78-11.76a52.8,52.8,0,0,1,24.92-1c18.2,3.62,31.26,13.56,38,31.19,4,10.6,5.4,22,6.19,33.33-.5-7.09,12-10.86,17.06-11.31a22.86,22.86,0,0,1,21,10c5.29,7.78,6.23,17.8,5.1,27.14,4.53-6.9,17.6-4.61,22.95-.34,9.7,7.74,8.82,21.51,8.92,32.66q.21,24.08.43,48.16c.07,7.83.58,94,.85,94-58.37-.59-116.55,2.19-174.87,2.91-59.34.73-118.57-4-177.87-5.13Q79.46,500,7.74,505.68c-2.89.23-6.15.35-8.29-1.6s-2.32-5.21-2.34-8.11Q-3.11,465.24-2.62,434.49Z"/></g><g class="cls-4"><path class="cls-6" d="M510.49,455.89c0-6.24,0-12.47,0-18.71q0-4.77,0-9.54c-.36-30.67-1.28-61.31-.57-92,.18-7.79.39-15.59.59-23.39-.37-20-.9-40-1.22-60l-5.31,5-6.37-26.92-16.56,21.6-12.9-24.74-10.26,24.73-17.07-21.51-4.28,26.24-22.41-16.82,0,27.61L391,254.28l6,26.87-27-5.88L382.64,299H355.13l17.22,21.38-26.69,6,21.1,15.42-24.09,12.07,24.63,10.59-21.44,17.81,26.73,5.78-17.38,20.86h27.54l-11.62,25,26.31-6.85-6.77,26.13,24.85-11.94-.91,26.94L436,451l5.35,26.55L458,455.92l11.45,24.72,12.1-24.8,16.87,21.48,4.4-26.32,7.68,5.7C510.48,456.43,510.49,456.16,510.49,455.89Z"/><path class="cls-7" d="M510,472.43c0-.88.05-1.76.08-2.64q.21-6.9.4-13.79c0-6.27,0-12.55,0-18.82q0-4.77,0-9.54c-.36-30.67-1.28-61.31-.57-92,.18-7.79.39-15.59.59-23.39-.48-26.26-1.26-52.5-1.43-78.77a126.75,126.75,0,1,0,.06,240.76A4.54,4.54,0,0,1,510,472.43Z"/><path class="cls-7" d="M510.47,437.18q0-4.77,0-9.54c-.36-30.67-1.28-61.31-.57-92,.18-7.79.39-15.59.59-23.39-.32-17.64-.78-35.28-1.1-52.92A102.66,102.66,0,1,0,510.48,448C510.47,444.38,510.46,440.78,510.47,437.18Z"/><path class="cls-8" d="M421.78,500.14c11.88-39.13,24.77-77.94,36.71-117q5-16.46,9.78-33a12.31,12.31,0,0,1,.54,1.79l-.54-1.79C483,393,495,436,507.91,479.88"/><path class="cls-6" d="M366.76,353.89c47.24.11,93.24.11,140.65,0"/><path class="cls-6" d="M370.14,380.09c35.81-10,71.93-18.84,107.82-28.55Q493,347.46,508,343.13"/><path class="cls-6" d="M380.23,404.74c33.4-19.32,66.92-38.44,100.15-58.07q14.22-8.4,28.37-16.93"/><path class="cls-6" d="M395.74,425.37c30.1-28.65,58.46-59.05,87.9-88.37q12.25-12.18,24.8-24.05"/><path class="cls-6" d="M416.85,442.08c11.69-20.79,23.66-41.41,35.63-62s23.95-41,36.38-61.26c6.91-11.25,13.09-22.9,19.74-34.29"/><line class="cls-6" x1="494.55" y1="254.33" x2="444.18" y2="453.42"/><line class="cls-6" x1="442.3" y1="254.86" x2="494.55" y2="454.55"/><path class="cls-6" d="M508.47,423.35C483,377,457,333,430,286a215.91,215.91,0,0,1-13.15-21.49"/><path class="cls-6" d="M508.48,394.06C472,355,433,319,397,281.15"/><path class="cls-6" d="M507.58,375.4c-33.05-19.06-66.55-37.31-99.49-56.54q-13.84-8.08-27.52-16.42"/><path class="cls-6" d="M508.05,364.48C462,353,416,338,370.38,326.82"/><line class="cls-6" x1="468.27" y1="251.83" x2="468.27" y2="457.15"/><circle class="cls-9" cx="469.42" cy="353.89" r="21.35"/><circle class="cls-10" cx="469.42" cy="353.89" r="14.91"/><circle class="cls-9" cx="466.02" cy="216.42" r="7.57" transform="translate(-16.54 392.91) rotate(-45)"/><circle class="cls-9" cx="398.73" cy="236.61" r="7.57" transform="translate(-21.51 432.48) rotate(-55.67)"/><circle class="cls-9" cx="350.33" cy="284.4" r="7.57" transform="translate(-7.16 559.75) rotate(-76.67)"/><circle class="cls-9" cx="331.4" cy="354.49" r="7.57" transform="translate(-153.6 338.16) rotate(-45)"/><circle class="cls-9" cx="348.53" cy="419.38" r="7.57" transform="translate(-194.46 369.28) rotate(-45)"/><circle class="cls-9" cx="399.33" cy="472.28" r="7.57" transform="translate(-151.85 752.85) rotate(-76.76)"/><path class="cls-10" d="M509.35,504.58a4.5,4.5,0,0,1-.14-5.64v-.09l-.08,0,.08-.15c0-1,0-2,0-3,0-.15,0-.29,0-.43H392.76a4.25,4.25,0,0,0-4.25,4.25v4c2.56.08,5.1.21,7.59.31,13.66.54,27.35.65,41,.77,24.08.23,48.16.19,72.24.16C509.36,504.75,509.35,504.67,509.35,504.58Z"/><polygon class="cls-10" points="46.4 206.1 46.76 209.58 44.83 211.65 24.23 213.98 20.55 212.55 20.2 209.06 24.04 206.03 42.84 204 46.4 206.1"/><polygon class="cls-11" points="32.77 172.41 27.34 150.08 26.83 173.08 30.13 176.64 32.77 172.41"/><polygon class="cls-10" points="33.72 178.98 32.77 172.41 26.83 173.08 26.96 179.74 28.14 180.8 32.87 180.26 33.72 178.98"/><path class="cls-11" d="M46.4,206.1l-26.2,3a159.43,159.43,0,0,0,6.34-29.27l7.59-.86A113.69,113.69,0,0,0,46.4,206.1Z"/><g class="cls-12"><polygon class="cls-13" points="36.2 195.02 33.23 195.36 34.4 192.12 36.2 195.02"/><polygon class="cls-13" points="30.96 195.62 27.99 195.95 29.16 192.71 30.96 195.62"/><polygon class="cls-13" points="32.5 186.85 29.54 187.18 30.7 183.94 32.5 186.85"/><polygon class="cls-13" points="39.73 202.95 36.77 203.29 37.93 200.05 39.73 202.95"/><polygon class="cls-13" points="34.46 203.55 31.49 203.88 32.66 200.65 34.46 203.55"/><polygon class="cls-13" points="29.07 204.16 26.1 204.49 27.27 201.25 29.07 204.16"/></g><polygon class="cls-10" points="21.28 236.9 51.09 233.73 48.6 209.41 18.81 212.78 21.28 236.9"/><polygon class="cls-9" points="19.14 216.06 48.94 212.69 48.6 209.41 18.81 212.78 19.14 216.06"/><path class="cls-14" d="M46.07,229.14l-3.3.37-.91-8.84a1.72,1.72,0,0,1,1.48-1.89h0a1.67,1.67,0,0,1,1.82,1.52Z"/><path class="cls-14" d="M38.45,230l-.9-8.84A1.71,1.71,0,0,1,39,219.27h0a1.68,1.68,0,0,1,1.83,1.51l.9,8.85Z"/><path class="cls-14" d="M34.14,230.49l-.91-8.84a1.72,1.72,0,0,1,1.48-1.89h0a1.66,1.66,0,0,1,1.82,1.51l.91,8.85Z"/><path class="cls-14" d="M29.83,231l-.91-8.85a1.71,1.71,0,0,1,1.48-1.88h0a1.66,1.66,0,0,1,1.82,1.51l.91,8.84Z"/><path class="cls-14" d="M25.51,231.47l-.9-8.85a1.69,1.69,0,0,1,1.47-1.88h0a1.66,1.66,0,0,1,1.83,1.51l.9,8.84Z"/><path class="cls-11" d="M50.9,231.85a162.53,162.53,0,0,0,15.3,28.59l-1.46,3.87L14.44,270,12,266.58a156.56,156.56,0,0,0,9.16-31.35Z"/><g class="cls-12"><polygon class="cls-13" points="45.53 246.65 48.78 246.28 48.17 240.34 44.93 240.71 45.53 246.65"/><polygon class="cls-13" points="36.16 247.71 39.4 247.35 38.79 241.4 35.55 241.77 36.16 247.71"/><polygon class="cls-13" points="25.99 248.86 29.24 248.5 28.63 242.55 25.39 242.92 25.99 248.86"/><polygon class="cls-13" points="22.52 261.24 25.76 260.88 25.15 254.93 21.91 255.3 22.52 261.24"/><polygon class="cls-13" points="31.9 260.18 35.14 259.81 34.53 253.87 31.29 254.24 31.9 260.18"/><polygon class="cls-13" points="42.06 259.03 45.3 258.67 44.69 252.72 41.45 253.09 42.06 259.03"/><polygon class="cls-13" points="51.44 257.97 54.68 257.6 54.07 251.66 50.83 252.03 51.44 257.97"/></g><polygon class="cls-9" points="14.32 289.71 68.57 283.58 66.2 260.44 11.95 266.58 14.32 289.71"/><g class="cls-15"><path class="cls-13" d="M54.05,276.63l5-.57-.91-8.87a1.72,1.72,0,0,0-1.88-1.58l-1.56.17a1.78,1.78,0,0,0-1.52,2Z"/><path class="cls-13" d="M46.23,277.51l5-.56-.91-8.87a1.73,1.73,0,0,0-1.88-1.59l-1.57.18a1.77,1.77,0,0,0-1.52,2Z"/><path class="cls-13" d="M37.63,278.48l5-.56-.91-8.87a1.73,1.73,0,0,0-1.88-1.59l-1.57.18a1.78,1.78,0,0,0-1.52,2Z"/><path class="cls-13" d="M29.82,279.37l5-.56-.91-8.88A1.72,1.72,0,0,0,32,268.35l-1.56.17a1.78,1.78,0,0,0-1.52,2Z"/><path class="cls-13" d="M22,280.25l5-.56-.91-8.87a1.73,1.73,0,0,0-1.88-1.59l-1.57.18a1.77,1.77,0,0,0-1.52,2Z"/></g><polygon class="cls-11" points="77.7 336.31 79.16 339.23 75.46 343.52 73.98 346.59 21.98 352.47 20.1 349.78 15.16 346.47 17.1 343.17 77.7 336.31"/><polygon class="cls-9" points="36.68 511.55 92.04 505.28 75.46 343.52 20.1 349.78 36.68 511.55"/><polygon class="cls-3" points="75.26 376.82 77.06 376.62 73.98 346.59 72.19 346.79 75.26 376.82"/><polygon class="cls-3" points="70.74 377.33 72.53 377.13 69.46 347.1 67.66 347.31 70.74 377.33"/><polygon class="cls-3" points="66.21 377.85 68.01 377.64 64.93 347.61 63.13 347.82 66.21 377.85"/><polygon class="cls-3" points="61.68 378.36 63.48 378.15 60.4 348.13 58.6 348.33 61.68 378.36"/><polygon class="cls-3" points="57.15 378.87 58.95 378.67 55.87 348.64 54.08 348.84 57.15 378.87"/><polygon class="cls-3" points="52.62 379.38 54.42 379.18 51.34 349.15 49.55 349.35 52.62 379.38"/><polygon class="cls-3" points="48.1 379.89 49.89 379.69 46.82 349.66 45.02 349.87 48.1 379.89"/><polygon class="cls-3" points="43.57 380.41 45.37 380.2 42.29 350.18 40.49 350.38 43.57 380.41"/><polygon class="cls-3" points="39.04 380.92 40.84 380.71 37.76 350.69 35.96 350.89 39.04 380.92"/><polygon class="cls-3" points="34.51 381.43 36.31 381.23 33.23 351.2 31.44 351.4 34.51 381.43"/><polygon class="cls-3" points="29.98 381.94 31.78 381.74 28.71 351.71 26.91 351.92 29.98 381.94"/><polygon class="cls-3" points="25.46 382.46 27.25 382.25 24.18 352.22 22.38 352.43 25.46 382.46"/><polygon class="cls-3" points="79.44 417.55 81.23 417.35 78.16 387.32 76.36 387.53 79.44 417.55"/><polygon class="cls-3" points="74.91 418.07 76.71 417.86 73.63 387.83 71.83 388.04 74.91 418.07"/><polygon class="cls-3" points="70.38 418.58 72.18 418.38 69.1 388.35 67.31 388.55 70.38 418.58"/><polygon class="cls-3" points="65.85 419.09 67.65 418.89 64.58 388.86 62.78 389.06 65.85 419.09"/><polygon class="cls-3" points="61.33 419.6 63.12 419.4 60.05 389.37 58.25 389.57 61.33 419.6"/><polygon class="cls-3" points="56.8 420.12 58.6 419.91 55.52 389.88 53.72 390.09 56.8 420.12"/><polygon class="cls-3" points="52.27 420.63 54.07 420.42 50.99 390.4 49.19 390.6 52.27 420.63"/><polygon class="cls-3" points="47.74 421.14 49.54 420.94 46.46 390.91 44.66 391.11 47.74 421.14"/><polygon class="cls-3" points="43.21 421.65 45.01 421.45 41.94 391.42 40.14 391.62 43.21 421.65"/><polygon class="cls-3" points="38.69 422.16 40.48 421.96 37.41 391.93 35.61 392.14 38.69 422.16"/><polygon class="cls-3" points="34.16 422.68 35.96 422.47 32.88 392.44 31.08 392.65 34.16 422.68"/><polygon class="cls-3" points="29.63 423.19 31.43 422.99 28.35 392.96 26.55 393.16 29.63 423.19"/><polygon class="cls-3" points="83.53 457.55 85.33 457.34 82.26 427.32 80.46 427.52 83.53 457.55"/><polygon class="cls-3" points="79.01 458.06 80.81 457.86 77.73 427.83 75.93 428.03 79.01 458.06"/><polygon class="cls-3" points="74.48 458.57 76.28 458.37 73.2 428.34 71.4 428.54 74.48 458.57"/><polygon class="cls-3" points="69.95 459.08 71.75 458.88 68.67 428.85 66.88 429.06 69.95 459.08"/><polygon class="cls-3" points="65.42 459.6 67.22 459.39 64.14 429.37 62.35 429.57 65.42 459.6"/><polygon class="cls-3" points="60.9 460.11 62.69 459.9 59.62 429.88 57.82 430.08 60.9 460.11"/><polygon class="cls-3" points="56.37 460.62 58.17 460.42 55.09 430.39 53.29 430.59 56.37 460.62"/><polygon class="cls-3" points="51.84 461.13 53.64 460.93 50.56 430.9 48.76 431.11 51.84 461.13"/><polygon class="cls-3" points="47.31 461.64 49.11 461.44 46.03 431.41 44.24 431.62 47.31 461.64"/><polygon class="cls-3" points="42.78 462.16 44.58 461.95 41.51 431.93 39.71 432.13 42.78 462.16"/><polygon class="cls-3" points="38.26 462.67 40.05 462.47 36.98 432.44 35.18 432.64 38.26 462.67"/><polygon class="cls-3" points="33.73 463.18 35.53 462.98 32.45 432.95 30.65 433.15 33.73 463.18"/><polygon class="cls-3" points="87.71 498.28 89.51 498.08 86.43 468.05 84.63 468.25 87.71 498.28"/><polygon class="cls-3" points="83.18 498.79 84.98 498.59 81.9 468.56 80.1 468.76 83.18 498.79"/><polygon class="cls-3" points="78.65 499.3 80.45 499.1 77.37 469.07 75.58 469.28 78.65 499.3"/><polygon class="cls-3" points="74.13 499.82 75.92 499.61 72.85 469.58 71.05 469.79 74.13 499.82"/><polygon class="cls-3" points="69.6 500.33 71.39 500.13 68.32 470.1 66.52 470.3 69.6 500.33"/><polygon class="cls-3" points="65.07 500.84 66.87 500.64 63.79 470.61 61.99 470.81 65.07 500.84"/><polygon class="cls-3" points="60.54 501.35 62.34 501.15 59.26 471.12 57.47 471.33 60.54 501.35"/><polygon class="cls-3" points="56.01 501.87 57.81 501.66 54.73 471.63 52.94 471.84 56.01 501.87"/><polygon class="cls-3" points="51.49 502.38 53.28 502.17 50.21 472.15 48.41 472.35 51.49 502.38"/><polygon class="cls-3" points="46.96 502.89 48.76 502.69 45.68 472.66 43.88 472.86 46.96 502.89"/><polygon class="cls-3" points="42.43 503.4 44.23 503.2 41.15 473.17 39.35 473.38 42.43 503.4"/><polygon class="cls-3" points="37.9 503.91 39.7 503.71 36.62 473.68 34.83 473.89 37.9 503.91"/><polygon class="cls-10" points="23.84 386.21 79.19 379.95 79.05 378.55 23.69 384.81 23.84 386.21"/><polygon class="cls-10" points="24.21 389.91 79.57 383.65 79.43 382.25 24.07 388.52 24.21 389.91"/><polygon class="cls-10" points="28.01 426.94 83.37 420.68 83.22 419.29 27.87 425.55 28.01 426.94"/><polygon class="cls-10" points="28.39 430.64 83.75 424.38 83.6 422.99 28.25 429.25 28.39 430.64"/><polygon class="cls-10" points="32.11 466.93 87.47 460.67 87.32 459.28 31.96 465.54 32.11 466.93"/><polygon class="cls-10" points="32.49 470.64 87.84 464.38 87.7 462.98 32.34 469.24 32.49 470.64"/><polygon class="cls-11" points="70.45 265.6 68.76 260.77 68.06 265.87 69.7 281.82 72.09 281.55 70.45 265.6"/><polygon class="cls-11" points="11.3 272.3 9.61 267.46 8.91 272.57 10.54 288.51 12.94 288.24 11.3 272.3"/><line class="cls-16" x1="70.47" y1="277.55" x2="70.75" y2="280.29"/><line class="cls-16" x1="65.78" y1="278.08" x2="66.06" y2="280.82"/><line class="cls-16" x1="60.31" y1="278.69" x2="60.59" y2="281.44"/><line class="cls-16" x1="54.84" y1="279.31" x2="55.12" y2="282.06"/><line class="cls-16" x1="49.36" y1="279.93" x2="49.65" y2="282.68"/><line class="cls-16" x1="43.11" y1="280.64" x2="43.39" y2="283.38"/><line class="cls-16" x1="36.86" y1="281.35" x2="37.14" y2="284.09"/><line class="cls-16" x1="30.6" y1="282.05" x2="30.89" y2="284.8"/><line class="cls-16" x1="24.35" y1="282.76" x2="24.63" y2="285.51"/><line class="cls-16" x1="17.32" y1="283.56" x2="17.6" y2="286.3"/><line class="cls-16" x1="11.06" y1="284.27" x2="11.34" y2="287.01"/><polyline class="cls-16" points="73.09 280.02 72.81 277.28 8.81 284.52 9.09 287.26"/><polygon class="cls-9" points="15.16 346.47 79.16 339.23 73.09 280.02 9.09 287.26 15.16 346.47"/><polygon class="cls-10" points="15.16 346.47 79.16 339.23 77.45 322.57 13.45 329.81 15.16 346.47"/><path class="cls-14" d="M63.93,336l5-.56-.53-5.14a1.72,1.72,0,0,0-1.88-1.58l-1.56.17a1.78,1.78,0,0,0-1.52,2Z"/><path class="cls-14" d="M56.11,336.91l5-.56-.52-5.14a1.73,1.73,0,0,0-1.88-1.59l-1.57.18a1.77,1.77,0,0,0-1.52,2Z"/><path class="cls-14" d="M47.51,337.88l5-.56L52,332.18a1.73,1.73,0,0,0-1.88-1.59l-1.57.18a1.78,1.78,0,0,0-1.52,2Z"/><path class="cls-14" d="M39.69,338.77l5-.57-.53-5.13a1.72,1.72,0,0,0-1.88-1.59l-1.56.17a1.78,1.78,0,0,0-1.52,2Z"/><path class="cls-14" d="M31.88,339.65l5-.56L36.32,334a1.74,1.74,0,0,0-1.89-1.59l-1.56.18a1.78,1.78,0,0,0-1.52,2Z"/><path class="cls-14" d="M23.87,340.46l5-.56-.52-5.14a1.73,1.73,0,0,0-1.89-1.59l-1.56.18a1.77,1.77,0,0,0-1.52,2Z"/><polygon class="cls-10" points="26.4 325.89 64.28 321.61 60.44 284.1 22.55 288.38 26.4 325.89"/><polygon class="cls-10" points="67.83 321.21 74.86 320.41 71.02 282.9 63.98 283.7 67.83 321.21"/><polygon class="cls-10" points="15.46 327.13 22.49 326.34 18.65 288.83 11.61 289.62 15.46 327.13"/><path class="cls-17" d="M25.51,306.87c1,10.25,9.92,17.65,19.81,16.54s17.06-10.34,16-20.59-9.92-17.65-19.81-16.53S24.46,296.62,25.51,306.87Z"/><ellipse class="cls-18" cx="43.42" cy="304.85" rx="17.57" ry="16.95" transform="translate(-262.96 335.65) rotate(-87.63)"/><ellipse class="cls-3" cx="43.42" cy="304.85" rx="16.22" ry="15.64" transform="translate(-262.96 335.64) rotate(-87.63)"/><path class="cls-19" d="M28.76,306.5A14.83,14.83,0,0,0,45,320c8.1-.91,14-8.46,13.11-16.85a14.84,14.84,0,0,0-16.22-13.54A15.22,15.22,0,0,0,28.76,306.5Z"/><path class="cls-20" d="M29.69,306.4a13.88,13.88,0,0,0,15.19,12.68A14.25,14.25,0,0,0,57.16,303.3,13.9,13.9,0,0,0,42,290.62,14.24,14.24,0,0,0,29.69,306.4Z"/><path class="cls-21" d="M34.82,305.57a8.44,8.44,0,0,0,9.23,7.7,8.65,8.65,0,0,0,7.45-9.58,8.43,8.43,0,0,0-9.22-7.7A8.65,8.65,0,0,0,34.82,305.57Z"/><line class="cls-16" x1="43.33" y1="306.44" x2="41.92" y2="292.68"/><line class="cls-16" x1="41.04" y1="304.87" x2="48.9" y2="303.98"/><path class="cls-9" d="M42.07,304.8a1.09,1.09,0,0,0,1.19,1,1.12,1.12,0,0,0,1-1.24,1.09,1.09,0,0,0-1.19-1A1.12,1.12,0,0,0,42.07,304.8Z"/><path class="cls-22" d="M20.1,349.78l-4.94-3.31L9.09,287.26l4.92-.55L12,266.58a156.56,156.56,0,0,0,9.16-31.35l-2-19.17h0l-.33-3.28,1.82-.2-.08,0-.35-3.49a159.43,159.43,0,0,0,6.34-29.27l.42,0h0l-.13-6.66.51-23,2.26,22.68.4,5.33,3.55-.29.17,1.18-3.66,1.62,2,27.12,0,2.18,14.72-.32,0,0-12.85,3.11,1.62,18.75,15.41.36h0l-14,7.46,1.24,24.31-7.15.81,1.89,19.24,35.23-4.73.22,1.62-33,7.83,6.06,52.72L78.93,337l.23,2.26-3.7,4.29L77,358.3l8.07,78.77L71.74,359.22l-28.2,2.94L56.73,491.08l1.08,10.58,33.83-.26.4,3.88-32.11,3.63-23.25,2.64Z"/></g><g class="cls-4"><path class="cls-23" d="M222.78,238.1q-4.32.87-8.59,1.88c-15.15,3.56-29.17,6.9-37.9,21-7.38,11.91-6.8,26.43-5.13,39.88-.76-4.22-5.24-7.18-9.52-6.92s-8.1,3.23-10.13,7a22.13,22.13,0,0,0-2.06,12.52c.83,8.81,5.76,18.06,13.65,22.43,4.14,2.3,10.29,3.05,12.81-1-1.94,3.08,4.18,13.28,5.85,15.78,3.43,5.11,7.89,8.7,13.09,11.87a82.5,82.5,0,0,0,38.89,12A112.41,112.41,0,0,0,285.9,365c9.05-4.05,18.31-9.14,25.15-16.45,8.2-8.74,8.1-20.39,4.81-31.51,2,1.69,5.09,1.47,7.3.09a14.84,14.84,0,0,0,4.9-6,35.78,35.78,0,0,0,4.43-17A23.71,23.71,0,0,0,324.22,277c-5.93-4.83-17.35-1.15-15.48,7.73-2.15-10.23-4.34-20.6-9-29.94-5.42-10.74-15-20.85-27.52-21.78C255.66,231.76,239,234.8,222.78,238.1Z"/><path class="cls-24" d="M170.64,296.24c.16,1.55.33,3.08.52,4.6a8.53,8.53,0,0,0-4.7-5.9,9.65,9.65,0,0,0-3.6-1c-1-.08-2.53.58-3.35.34a9.23,9.23,0,0,1,5.4,5.17,15.28,15.28,0,0,1,1,7.55,77.08,77.08,0,0,0-13.79-2.1,3.49,3.49,0,0,0-1.44.06c-2,.68-1.37,6.89-1.22,8.5.83,8.81,5.76,18.06,13.65,22.43,4.14,2.3,10.29,3.05,12.81-1-1.94,3.08,4.18,13.28,5.85,15.78,3.43,5.11,7.89,8.7,13.09,11.87a82.5,82.5,0,0,0,38.89,12A112.41,112.41,0,0,0,285.9,365c9.05-4.05,18.31-9.14,25.15-16.45,8.2-8.74,8.1-20.39,4.81-31.51,2,1.69,5.09,1.47,7.3.09a14.84,14.84,0,0,0,4.9-6c2.14-4.07,5.35-10.9,4.2-15.54-2.81.8-5.58,2-8.33,3a17.27,17.27,0,0,0,.88-8.64c-.59-2.87-2.56-5.6-5.38-6.39a3.63,3.63,0,0,0-3.43.54c-.94.87-1.07,2.3-1.13,3.58l-.28,6c-.55-3.25-1.1-6.51-1.35-9.8-.26-3.45,0-7.42,2.76-9.55-3.87,3-8.58,4.05-7.26,10.32-2.15-10.23-4.34-20.6-9-29.94-5.42-10.74-15-20.85-27.52-21.78-16.52-1.23-33.23,1.81-49.4,5.11q-4.32.87-8.59,1.88c-17,4-42.79,11.55-40.17,34a24,24,0,0,0,11.27,17.47c-.55-3-1.1-6.05-1.66-9.08a24.56,24.56,0,0,0,10.75,3.69,29,29,0,0,1-6.93-21,19.9,19.9,0,0,0,9.92,13.57c-3.27-5.91-2.54-13.65,1.34-19.18a22.29,22.29,0,0,1,17.34-9.05,28,28,0,0,1,18.63,6.76c-.22-2.5,2.78-4.36,5.23-3.79s4.18,2.77,5.22,5.06c3.58,7.81,1.17,16.93-1.46,25.1a41,41,0,0,0,16.53-27.33c.62-4.44.42-9.25-2-13,10.73-1.31,21.71,4.49,27.69,13.5s7.18,20.73,4.36,31.17a38.11,38.11,0,0,0,9.05-21.74c6.92,11.25,8.36,27.05,9.14,39.95a340,340,0,0,0-48.61,39.14,3,3,0,0,1-1.69,1,3,3,0,0,1-1.83-.65,243.17,243.17,0,0,0-79.94-31.69l-5.43-16.59"/><g class="cls-25"><path class="cls-26" d="M157.82,312.46c-.41-2.67.4-7.16,4.05-6.35,2.9.94,4.43,3.87,6,6.25a29.27,29.27,0,0,1,2.34,5.28l-.61-.32s-.09.06-.1.09,0,0,0-.06a5.25,5.25,0,0,0-3-2.53c-1.7-.34-2.58,1.43-2.7,2.92-.2,3.13,1.34,7.45,4.87,8-4.43-.12-7.08-7.25-4.75-10.72a2.81,2.81,0,0,1,2.74-1.09c1.35.06,5.32,3.39,3.17,4.36l-.47.1-.14-.42a29.31,29.31,0,0,0-5.37-9.72,5.1,5.1,0,0,0-2.15-1.5c-3.19-.8-3.94,3.36-3.89,5.73Z"/></g><g class="cls-25"><path class="cls-26" d="M319.33,306.44a9.2,9.2,0,0,0,3.16-9.25c-.37-1.3-1.09-3.48-2.75-3.16-2.41.59-2.46,3.91-3.1,5.89l-.42-2.28c-.52-3.71-2.78-9.71,0-12.91,2.66-2.13,6.2.54,7.36,3.1.55,1.49.55,1.47-.14.06a7.42,7.42,0,0,0-3-2.84c-7.49-2.78-3.78,8.76-3.2,12.45l-1-.05a10,10,0,0,1,1-2.6c.71-1.3,2.52-2.28,4-1.49,1.29.79,1.75,2.31,2.06,3.67a9.13,9.13,0,0,1-3.89,9.41Z"/></g><g class="cls-25"><path class="cls-26" d="M257.55,274.13c-.91,2.95-2.25,7-3,9.93l-.26-1.06A113.51,113.51,0,0,1,268,296.39a8,8,0,0,1,1.89,2.77c.49,1.52-.74,2.85-1.76,3.63a35.82,35.82,0,0,1-7.07,4.56c-.85.42-5.32,2.61-6.06,3-.36.21-.5.3-.52.73,0,.86,0,1.81,0,2.72-.23-1.32-1.46-3.19-.09-4.25,4-3.23,9.5-6.23,12.67-9.65-4.63-5.49-9.74-10.76-14.68-16a58.73,58.73,0,0,1,5.14-9.81Z"/></g><path class="cls-27" d="M205.65,293.69c-3.84,1.93-3.61,7.93-2.38,11.38,1.93,5.4,8.58,6.19,10.91.54,2.08-5-1.31-15.19-8.35-12Z"/><path class="cls-27" d="M281.18,285.57c-3.84,1.93-3.61,7.93-2.38,11.38,1.93,5.4,8.58,6.19,10.91.55,2.08-5.05-1.31-15.2-8.35-12Z"/><path class="cls-28" d="M191,320.32a14.41,14.41,0,0,0-3.38,3.55,5.05,5.05,0,0,0-.66,4.64c.68,1.61,2.34,2.56,3.95,3.25a31.78,31.78,0,0,0,23.86.45c3.34-1.3,7.29-3.62,9.34-6.66a5.43,5.43,0,0,0,.66-5.34,5.93,5.93,0,0,0-1.66-1.87,16.18,16.18,0,0,0-7.64-2.81C208.33,314.5,197.52,315.39,191,320.32Z"/><path class="cls-28" d="M277.62,308.52a14.59,14.59,0,0,0-3.38,3.55,5.08,5.08,0,0,0-.66,4.65c.68,1.61,2.34,2.55,3.95,3.25a31.78,31.78,0,0,0,23.86.44c3.34-1.3,7.29-3.62,9.34-6.65a5.43,5.43,0,0,0,.66-5.34,5.61,5.61,0,0,0-1.66-1.87,16,16,0,0,0-7.64-2.81C294.94,302.71,284.13,303.6,277.62,308.52Z"/><path class="cls-29" d="M266.55,325.54c1.25.06,2.5.16,3.73.31.76,8.43-4.47,16.29-10.93,21.29a3.2,3.2,0,0,1-1.4.73,3.15,3.15,0,0,1-1.73-.4,30.24,30.24,0,0,1-16-17.41,1,1,0,0,1,0-.81,1,1,0,0,1,.63-.36C249,326.73,258,325.13,266.55,325.54Z"/><path class="cls-21" d="M266.56,326.55c.59,0,1.18.06,1.78.11-.55,1-1.26,1.82-1.81,2.83-.8,1.44-2.56,2.13-4.07,2.63a28,28,0,0,1-10.2,1.27,15.32,15.32,0,0,1-9.47-4,66.61,66.61,0,0,1,13-2.48A73.58,73.58,0,0,1,266.56,326.55Z"/><path class="cls-13" d="M190.47,275.81c7.41-12.69,26.72-15.6,37.73-6-3.58,0-6.84-.22-10-.18-9.85-.17-18.48,2.64-27.7,6.17Z"/><path class="cls-13" d="M265,265.64a16.7,16.7,0,0,1,27-2.16c-4.78.56-9.16-.31-13.6.08s-8.62,1.84-13.43,2.08Z"/><path class="cls-13" d="M288.82,204.5a11,11,0,0,1,2.67-4.68,1.59,1.59,0,0,1,.85-.5c.79-.09,1.25.84,1.47,1.59.57,1.93,1.13,3.86,1.7,5.79.89-11.74,9.29-20.79,20.51-23.51a17.53,17.53,0,0,1,7.45-.36,2.18,2.18,0,0,1,1.15.47c1,1-.24,2.58-1.39,3.38a30.17,30.17,0,0,1,16,.74,22.82,22.82,0,0,1,12.39,9.88c3.93,6.78,3.57,15.26,1.62,22.85a2.63,2.63,0,0,0,0,2,3.15,3.15,0,0,0,1.7,1,8.08,8.08,0,0,1,4.56,5.86,15.45,15.45,0,0,1-.58,7.62,19,19,0,0,1-5.1,8.8,11.18,11.18,0,0,1-9.48,3,16.88,16.88,0,0,1-13.72,12.4c-6.12.85-12.31-1.85-17-5.86s-8.16-9.25-11.56-14.41C295,229.78,285.68,221,288.26,206.84,288.41,206.06,288.59,205.27,288.82,204.5Z"/><g class="cls-30"><path class="cls-31" d="M306.83,228.76c-5.32-11.41-7.77-27.1,4.14-35.28a13.7,13.7,0,0,1,5.12-2c-7.11,2-11.54,9-12.5,16-1,7.19,1.09,14.4,3.24,21.23Z"/></g><g class="cls-30"><path class="cls-31" d="M311.92,227.25c-3.87-11.67.73-26.6,13.16-30.77,5.91-1.9,13-.7,17.38,3.86,4.76,4.63,3.54,11.8,1.7,17.46a34.69,34.69,0,0,0,1.18-9c0-6.21-5.4-10.9-11.2-12-9-1.91-17.91,4.3-21.16,12.6a29.4,29.4,0,0,0-1.06,17.77Z"/></g><g class="cls-30"><path class="cls-31" d="M334.1,214.06c9.68-1.5,15,10.91,7.25,16.89a10,10,0,0,0-7.25-16.89Z"/></g><g class="cls-30"><path class="cls-31" d="M350.82,229.11c2,3.59-.61,8.93-4.71,9.46a9.57,9.57,0,0,0,4.71-9.46Z"/></g><g class="cls-30"><path class="cls-31" d="M311,231.21c1.94,9.87,10.18,18.87,20.82,18a15.22,15.22,0,0,0,4.24-.9,13.82,13.82,0,0,1-4.18,1.39c-11,1.74-20.17-7.93-20.88-18.46Z"/></g><g class="cls-30"><path class="cls-31" d="M315.72,230.78A13.86,13.86,0,0,0,334,233.51c-5.12,5.36-15,3.88-18.32-2.73Z"/></g><g class="cls-30"><path class="cls-31" d="M316.85,226.42c3.33,1.13,10.14-1.2,10.66-5.06.83,4.61-7.42,7.73-10.66,5.06Z"/></g><g class="cls-30"><path class="cls-31" d="M298.3,220.92a6.15,6.15,0,0,1-2.73-6.86,32,32,0,0,0,2.73,6.86Z"/></g><path class="cls-13" d="M182.09,217.9a10.82,10.82,0,0,0-3.74-4,1.65,1.65,0,0,0-1-.31c-.85.07-1.16,1.08-1.25,1.87l-.69,6c-3.21-11.34-13.89-18.46-26.34-18.79a20.86,20.86,0,0,0-8,1.21,2.58,2.58,0,0,0-1.13.7c-.89,1.17.75,2.48,2.13,3a35.46,35.46,0,0,0-16.84,4.06A24.53,24.53,0,0,0,114,224c-2.87,7.48-.85,15.73,2.69,22.77a2.43,2.43,0,0,1,.37,2c-.27.64-1,1-1.61,1.36a8.2,8.2,0,0,0-3.72,6.7,14.49,14.49,0,0,0,2.09,7.36,18.69,18.69,0,0,0,7.12,7.56,12.72,12.72,0,0,0,10.64.92c2.88,5.92,9.92,9.77,17,9.3,6.67-.45,12.73-4.39,16.94-9.31S172.38,261.8,175,256c5.45-12,13.61-22.6,8.13-35.95A19.77,19.77,0,0,0,182.09,217.9Z"/><g class="cls-30"><path class="cls-31" d="M167.63,245.47c1-7.21,1.85-14.88-.73-21.83-2.54-6.79-8.84-12.38-16.3-12.78a15.33,15.33,0,0,1,5.53.76c14.3,5.37,15,21.11,11.5,33.85Z"/></g><g class="cls-30"><path class="cls-31" d="M161.93,245.05c.34-6.19-1.08-12.63-4.82-17.64-7.28-10.29-23.65-12.38-31.94-2.26-4.42,5.11-2,12,.67,17.37-2.22-4.05-4.59-8.74-3.4-13.52s5.34-8.25,9.76-10c17.08-6.37,32.16,9,29.73,26Z"/></g><g class="cls-30"><path class="cls-31" d="M135.81,236.75c-9,1.89-12.56,12.51-4.45,18.09a8.71,8.71,0,0,1-2.66-1.73c-6.39-6.18-1.24-16.14,7.11-16.36Z"/></g><g class="cls-30"><path class="cls-31" d="M120.94,255a9.28,9.28,0,0,0,6.83,8.29c-4.18.41-8.27-4.21-6.83-8.29Z"/></g><g class="cls-30"><path class="cls-31" d="M163.68,248.74c1.21,11.19-7.27,22.07-18.75,22.49a16,16,0,0,1-4.59-.49,18.31,18.31,0,0,0,4.56,0c11-1.22,18.64-11.22,18.78-22Z"/></g><g class="cls-30"><path class="cls-31" d="M158.57,249.31c-2.5,7.37-12.47,10.61-18.94,6.51a15.87,15.87,0,0,0,18.94-6.51Z"/></g><g class="cls-30"><path class="cls-31" d="M156.53,245.26c-2.89,2.91-9.34,2.25-11.8-1a2.92,2.92,0,0,1-.51-1.77c1.26,3.81,9.23,4.46,12.31,2.73Z"/></g><g class="cls-30"><path class="cls-31" d="M175.18,236a26.11,26.11,0,0,0,1.58-7.3,6.08,6.08,0,0,1-1.58,7.3Z"/></g><path class="cls-13" d="M248.41,246.74c3.82,2,6,6.47,6.5,10.82.49,4.64-.65,9.27-1.78,13.8a30.18,30.18,0,0,0,8.68-20c.16-4.51-1.4-9.5-5.86-11.38,4.47-2.1,11.46-1.11,16,.29a32.66,32.66,0,0,1,15.39,10.37c6.37,7.75,8.33,17.93,9.74,27.59a74.64,74.64,0,0,0,3.87-13c1.8,5.69,2.2,11.58,4.11,17.2A118.4,118.4,0,0,1,310,300.73c1.36,8,1.41,16.35-1,24.11,4.31-6.38,5.66-14.38,5.38-22.08a113,113,0,0,0-2.53-17.84c-.42-2.12-2-5.89-.46-7.78,1.21-1.48,4.81-2.13,6.56-2.29-1.33-7.14-1.49-14.63-3.26-21.61-1.47-5.78-3.26-11.54-6.31-16.66-7.76-13-23.12-20.3-38.27-21.15-10.21-.58-20.72,1.52-29.36,7a9.5,9.5,0,0,1-3.67,1.72,9.08,9.08,0,0,1-3.38-.41c-26.64-6.39-56.58,7.31-67.21,32.8-4.88,11.7-6.15,24.63-5.73,37.3,0-.45,4.95.38,5.41.64,1.78,1,2.83,3.31,3.49,5.13a90.89,90.89,0,0,1,4.61,19,58,58,0,0,0,1.6,9.38,13.64,13.64,0,0,0,5.31,7.68c-2.95-4.43-3.58-10-3.71-15.33a101,101,0,0,0-.5-12.05c-.54-3.84-2-7.53-2.74-11.39-1.53-8.07-2.5-16.67.75-24.46a13.54,13.54,0,0,0,7.71,13.76,38,38,0,0,1-3-13.12,15.34,15.34,0,0,0,6.75,7.7c-3.25-1.8-2.6-14.1-2-17.33,1-5.77,5.08-11.32,9.81-14.62a20.57,20.57,0,0,0-4.46,18.87c-.85-3.1,5.39-10.1,7.4-12a34.39,34.39,0,0,1,11.3-6.68,33.07,33.07,0,0,1,28,2.28c1-4.55,6.94-6.74,11.22-4.89C247.91,246.48,248.17,246.61,248.41,246.74Z"/><g class="cls-30"><path class="cls-31" d="M235.57,247.65c-2.61-11.3,3.68-22.19,14.5-26.15,17.07-6.06,40.6,1.24,52.33,14.78,8.71,10.56,12,24.64,12.47,38-.95-13.29-4.41-27.07-13.13-37.45-11.57-13.14-34.64-20.3-51.4-14.62a22.24,22.24,0,0,0-14.77,25.43Z"/></g><g class="cls-30"><path class="cls-31" d="M260.34,243.44c-5-6.48-15.91-6.31-21.31-.39a16,16,0,0,0-2.15,2.75A13.33,13.33,0,0,1,248,237.67c4.67-.35,10.15,1.37,12.37,5.77Z"/></g><g class="cls-30"><path class="cls-31" d="M238.81,238.33c14.92-14.61,39.86-9.63,52.82,5.13a34.22,34.22,0,0,1,8.5,17.39A36.05,36.05,0,0,0,291.06,244c-13.06-14.21-36.93-19.08-52.25-5.65Z"/></g><g class="cls-30"><path class="cls-31" d="M241.14,232.63c6-5.68,14.71-7.41,22.77-7.53,16.67-.32,32.7,9,40,24.07a42.12,42.12,0,0,1,4.6,23.74,43.85,43.85,0,0,0-5.28-23.38c-7.41-14.62-23.08-23.72-39.37-23.67-8,0-16.5,1.45-22.77,6.77Z"/></g><g class="cls-30"><path class="cls-31" d="M233.36,234.1a56.88,56.88,0,0,0-12.46-6.51c-13.4-3.8-29,1.14-38.44,11.18-13,13.8-17,33.77-17.12,52.23a90,90,0,0,1,3-28.08c3.67-13.58,11.77-27,24.9-33.21,8.57-4,18.69-5.5,27.8-2.58a39.26,39.26,0,0,1,6.37,3.14,36,36,0,0,1,5.94,3.83Z"/></g><g class="cls-30"><path class="cls-31" d="M190.05,256.63c3.1-11.63,15.78-19.36,27.57-17.42,6.14.94,11.6,4.36,16.43,8.11a54,54,0,0,0-11.78-6.09c-12.65-4.57-27.7,2.77-32.22,15.4Z"/></g><g class="cls-30"><path class="cls-31" d="M180.4,274.55c-8.07-21.19,14.63-43.74,35.88-39.39a28.25,28.25,0,0,1,17.66,10.73c-6.66-8.13-17.87-11.72-28.1-9.91-16.9,3.21-31.12,21.3-25.44,38.57Z"/></g><g class="cls-30"><path class="cls-31" d="M176.11,279c-6.53-18.47,3.24-42.33,22.93-47.54a29.27,29.27,0,0,1,19.18.82,30.56,30.56,0,0,0-19-.08c-19.2,5.57-28.43,28.4-23.15,46.8Z"/></g><g class="cls-30"><path class="cls-31" d="M227,224.63a8.74,8.74,0,0,1,7,3c.61.66.93,1.4,1.71,1.79-.88,0-1.61-.73-2.25-1.22a23.09,23.09,0,0,0-6.44-3.56Z"/></g><path class="cls-21" d="M75.2,306.53l8.25-6.71,5,1.56-3.44-3,2.56-1.76c44.63,3.61,145.76,36.79,167.66,57.3,30.09-31.78,101-64,150.78-76l2.14,2.51-8,4.43,10.58-2.94,6.14,9.06-51,42.44-108.13,34.5L77.6,317.47Z"/><path class="cls-31" d="M69.48,309.5l3.9-3.18c59,6.62,133,30.36,175.23,53.5l11.73-1.06c36.59-28.8,102.46-63.4,157.3-70.94l3.5,3.18L261.06,365.12H248.61Z"/><path class="cls-32" d="M233.48,360.42l-.12-2.58,3.52-5.9c13,6.3,23.57,5,35.08-3.26l3,5.27-1.66,4.58C260.1,366.75,246.83,367.27,233.48,360.42Z"/><path class="cls-32" d="M69.48,309.5l18.12,182,91.3,12.71,132.93,1.88,105.81-27.3L421.14,291c-50.46,8.53-108.36,33.33-156.19,70.4-6.56,17.61-14.1,14.89-22.16,1.41C191.16,334.63,130.06,317.56,69.48,309.5Z"/><path class="cls-33" d="M77.6,316.73c50.11,7.53,97.06,19.43,148.91,44l6.85,144c-44.61-4.64-90.61-11.6-140.56-20.66Z"/><path class="cls-34" d="M279.75,356.18l8.07,149.54,124.4-32.25,3.34-175.76C366.63,306,321.43,328,279.75,356.18Z"/><path class="cls-32" d="M92,333.44l15,139.68,107.84,21.64-5.44-128.47C176,349.76,136.06,339,92,333.44Z"/><path class="cls-32" d="M287.82,358.83l7.48,135.93,111.62-28.7,2.47-159.74C363.08,315.45,321.71,334,287.82,358.83Z"/><path class="cls-31" d="M294.3,376.65l6.49,89.41,100.6-29.88L403,335.64C370.35,343.32,332.56,358.4,294.3,376.65Z"/><polygon class="cls-21" points="300.18 457.59 300.79 466.06 313.93 462.16 402.4 352.7 402.96 335.64 391.95 339.8 300.18 457.59"/><path class="cls-21" d="M401.39,436.18V427.6l-99-53.5-8.05,2.55.53,7.36s99.13,54.37,99.78,54.18Z"/><polygon class="cls-26" points="300.79 466.06 300.45 462.76 400.14 336.71 402.96 335.64 402.67 344.63 306.68 464.31 300.79 466.06"/><path class="cls-26" d="M294.3,376.65l.2,2.83S398,437.18,398.67,437l2.72-.81V432l-103.3-56.52Z"/><polygon class="cls-21" points="332.19 359.74 345.34 452.82 368.14 446.05 356.07 350.21 332.19 359.74"/><polygon class="cls-21" points="296.64 412.87 401.39 377.82 401.39 404.41 298.31 435.97 296.64 412.87"/><polygon class="cls-26" points="338.09 357.28 350.92 451.17 363.27 447.47 350.19 352.56 338.09 357.28"/><polygon class="cls-26" points="296.96 417.35 401.39 384.01 401.39 398.53 297.88 429.98 296.96 417.35"/><path class="cls-35" d="M270,361.77c0,.59-.07,1.3-.08,2.21,0,3-.06,6.1-.16,9.15-.29,9.49-2.64,19.26-2.11,28.58.67,11.64,1.51,23.27,2.43,34.89s2,23.24,3.12,34.85c1.13,11.35,1.4,23.51,3.89,34.62,5.58-.32,11.36-.34,17-.26,5.24.07,12.67,1.57,17.79.25l105.81-27.3c.22-11.82,3.69-104.15,1.44-104.38a43.74,43.74,0,0,0-18.24,2c-3.88,1.29-9.87,3.21-12.28,6.66-1.88,2.69-1.09,7.37,2.13,8.05-3.22,1.85-6.15,5.07-5.83,8.76s5.62,6.35,7.95,3.46a7.44,7.44,0,0,0,8.5,12c-2.92.07-4.73,4-3.21,6.52s5.3,3,7.75,1.41c-17.73,16.48-39.23,28.24-60.49,39.84-15.27-36.2-26.27-74-37.23-111.76a4.43,4.43,0,0,1,1.92-5.83l36.74-31.38c-16.43,4.4-33.49,15.22-48,24.06q-8.42,5.11-16.55,10.67c-3.88,2.65-7.77,4.43-10.36,8.41C270.55,359.24,270.11,359.86,270,361.77Z"/><path class="cls-35" d="M172.44,342.12c.58-2.86,1.16-5.74,1.67-8.67-7.18-4-17-5.6-24.9-7.81Q136.13,322,122.88,319q-26.46-6-53.4-9.52,1.47,14.82,3,29.65l6.42,64.53c1.1,11,2.33,22.05,3.46,33,0-.09,10.44-1.66,11.5-1.87a77.63,77.63,0,0,0,12-3.42c3.48-1.31,12.63-7.13,6.4-11,1.93-1.76,4.25-3.17,5.68-5.46,2.54-4.07-3.4-14.55-6.09-10.85,2.41-3.32,4.06-7.4,3.55-11.46s-3.63-7.94-7.7-8.4q.59-13.22,1.19-26.44a4.66,4.66,0,0,1,.68-2.69,4.58,4.58,0,0,1,3.12-1.3,175.06,175.06,0,0,1,20.59-1.63c-5.67,18.54.19,40.1,14.47,53.22a72.13,72.13,0,0,1,2.47-19.12c6.76,6.4,13.85,13,22.74,15.77a127.6,127.6,0,0,1-4-34.58C169.08,358.68,170.76,350.47,172.44,342.12Z"/><path class="cls-36" d="M233.36,357.84l6.8,147.2,42.17,1L274.93,354C258.8,363.94,251.51,363.94,233.36,357.84Z"/><line class="cls-37" x1="236.38" y1="358.83" x2="243.33" y2="505.12"/><line class="cls-37" x1="279.75" y1="506.06" x2="272.22" y2="356.18"/><polygon class="cls-32" points="239.3 413.43 241.14 454.41 277.22 453.18 274.93 411.37 239.3 413.43"/><polygon class="cls-21" points="239.5 418.05 239.3 413.43 243.87 413.16 276.94 448.07 277.22 453.18 272.81 453.18 239.5 418.05"/><polygon class="cls-21" points="241.14 454.41 240.98 450.76 271.5 411.57 274.93 411.37 275.17 415.71 245.31 454.27 241.14 454.41"/><polygon class="cls-26" points="273.74 411.44 274.93 411.37 275.03 413.16 243.21 454.34 241.14 454.41 241.14 452.82 273.74 411.44"/><polygon class="cls-26" points="239.3 413.43 239.37 415.24 275.75 453.24 277.22 453.18 277.22 450.97 241.14 413.43 239.3 413.43"/><polygon class="cls-21" points="252.46 412.67 254.44 453.96 263.75 453.64 261.63 412.14 252.46 412.67"/><polygon class="cls-21" points="240.02 429.47 275.82 427.6 276.31 436.66 240.44 438.76 240.02 429.47"/><polygon class="cls-26" points="254.81 412.53 257.16 453.86 261.28 453.72 259.16 412.29 254.81 412.53"/><polygon class="cls-26" points="240.13 431.94 240.32 436.18 276.07 433.77 275.95 429.98 240.13 431.94"/><path class="cls-23" d="M75,424.75c-2-.06-4.29-3.6-4.56-4.92A5.79,5.79,0,0,1,73,414a6.2,6.2,0,0,1-1.89-11c-1.88-.46-3-2.58-2.85-4.5a8.76,8.76,0,0,1,2.58-5.07c4.89-5.28,12.51-7,19.41-5.66a6.17,6.17,0,0,1,4.53,3.17c1,2.19,0,3.28-2.2,3.67a54,54,0,0,0-13.18,4.21,8.11,8.11,0,0,0-2.74,1.82,116.59,116.59,0,0,1,12.93-3c4-.73,8.4-.81,12.27.76a7.74,7.74,0,0,1,3.41,2.39,4,4,0,0,1,.6,4c-1,2.23-4.06,2.44-6.52,2.52a47.18,47.18,0,0,0-20,5.18c5.88-1.27,11.91-2.66,17.87-3.43a12.45,12.45,0,0,1,6.56.46c2,.89,3.64,3.14,3.07,5.29a5,5,0,0,1-3.35,3.17,17.89,17.89,0,0,1-4.74.65,55.78,55.78,0,0,0-9.18,1.31,35.54,35.54,0,0,0-8.2,2.77A49.87,49.87,0,0,1,94.07,421a9.71,9.71,0,0,1,3.63.59,3.6,3.6,0,0,1,2.25,2.71,3.67,3.67,0,0,1-2,3.36,11.61,11.61,0,0,1-4,1.14,88,88,0,0,0-11.78,2.89,16.59,16.59,0,0,1-3.45.86c-2.4.23-3.89-1-4.87-3.1-.79-1.67-.25-4.18,1.67-4.82A1.63,1.63,0,0,1,75,424.75Z"/><g class="cls-25"><path class="cls-26" d="M69.48,404.3a18.17,18.17,0,0,1,11.45-5.05c-3.94,1.62-7.6,3.23-11.45,5.05Z"/></g><g class="cls-25"><path class="cls-26" d="M71.74,415.48a17.34,17.34,0,0,1,11.71-4.11c-4,1.25-7.77,2.56-11.71,4.11Z"/></g><g class="cls-25"><path class="cls-26" d="M73.38,427.25c.22-1.46,1.61-2.47,2.82-3.12a20.63,20.63,0,0,1,12.28-2.77,47,47,0,0,0-11.94,3.47,5.53,5.53,0,0,0-3.16,2.42Z"/></g><path class="cls-23" d="M429.18,404.88c1.58-.64,2.29-4.66,2.06-6a6.16,6.16,0,0,0-4.1-4.76,6.1,6.1,0,0,0,2-6,6.76,6.76,0,0,0-4.2-5c1.39-1,1.58-3.33.8-5.09a9.19,9.19,0,0,0-3.87-4,16.91,16.91,0,0,0-17.92.53,5.51,5.51,0,0,0-2.64,4.34c-.09,2.37,1.17,3.06,3.08,2.78a43.25,43.25,0,0,1,12.29,0,7.1,7.1,0,0,1,2.88.88,92.84,92.84,0,0,0-11.68,1.06,17.21,17.21,0,0,0-9.84,4.41,7,7,0,0,0-2,3.27,4.44,4.44,0,0,0,.88,3.91c1.62,1.78,4.17,1.07,6.23.4a37.53,37.53,0,0,1,18.26-1.16c-5.27.57-10.72,1.08-15.89,2.16a9.62,9.62,0,0,0-5.24,2.41,5,5,0,0,0-.71,5.89,4.68,4.68,0,0,0,3.85,2,13.9,13.9,0,0,0,4.12-.82,43.41,43.41,0,0,1,8-1.53,28.09,28.09,0,0,1,7.71.13,38.23,38.23,0,0,0-11,2.38,7.53,7.53,0,0,0-2.78,1.64,3.5,3.5,0,0,0-.92,3.23,3.78,3.78,0,0,0,2.8,2.55,9.34,9.34,0,0,0,3.65-.12,69.21,69.21,0,0,1,10.69-.83,13.6,13.6,0,0,0,3.13-.24c2.06-.51,2.86-2.09,2.95-4.37.07-1.81-1.23-4-3-4A1.22,1.22,0,0,0,429.18,404.88Z"/><g class="cls-25"><path class="cls-26" d="M426.72,384c-3.81-.52-7.34-.95-11.16-1.3a15,15,0,0,1,11.16,1.3Z"/></g><g class="cls-25"><path class="cls-26" d="M428.7,395.19c-3.78-.24-7.27-.37-11.06-.33a14,14,0,0,1,11.06.33Z"/></g><g class="cls-25"><path class="cls-26" d="M431.39,406.74a5,5,0,0,0-3.32-1.3,37.12,37.12,0,0,0-11.13.31c3-1.93,12.52-2.59,14.45,1Z"/></g><path class="cls-26" d="M146.1,316.73l-8.62,5.79c-8.16,18.41-11,40.57-6.9,58.39l13.64-15.79c2.43,6.93,7.62,13.12,14.35,18.89-1.17-19.06.78-37,8.14-53.17l7.67-6.11Z"/><path class="cls-38" d="M146.1,316.73l-2.95,2c6.57,1.85,13.08,3.89,19.5,6.25-5,3.07-7.38,8.72-9.39,13.94a79.66,79.66,0,0,0-4.52,22.38,32.23,32.23,0,0,0-3.43-7.65q-6.41,6.92-12.28,14.3c-1.53,1.92-3.3,4.19-3.5,6.74-.1,1.2,1.61,5.59,1.05,6.24l13.64-15.79c2.43,6.93,7.62,13.12,14.35,18.89-1.17-19.06.78-37,8.14-53.17l7.67-6.11Z"/></g><path class="cls-39" d="M322.28,149c-1.95,7.71-7.14,14.42-13.55,19.17s-14.56,7.46-22.43,9.33a88.41,88.41,0,0,1-12.11,2c-1,.09-11.87.26-11.88.31l-6.48,26.7q-1.19-13.84-1.65-27.72A176.73,176.73,0,0,1,208.85,171c-4.93-1.53-9.87-3.32-14-6.4s-7.41-7.65-7.86-12.79,2.51-10.68,7.42-12.24a28.11,28.11,0,0,1-.37-23.8c3.87-8.45,11.56-15.38,19.36-20.15,9-5.53,19.46-8.56,30-9.79A64.83,64.83,0,0,1,268,87.33a42.55,42.55,0,0,1,11.3,4.85c3.76,2.35,6.2,5.79,9,9.14,6.63-3.5,15.46-.37,19.76,5.77s4.65,14.41,2.52,21.6c4.3-.4,8.49,2.37,10.57,6.16s2.29,8.36,1.46,12.6C322.52,148,322.41,148.46,322.28,149Z"/><path class="cls-39" d="M55.93,157.84c.76,20,25.79,35.62,53.5,36.84l8.16-.31a78,78,0,0,0,16-3.71L169.35,219l-23.59-33.9C159,177.4,167.62,166,167.15,153.6c-.82-21.53-26.39-38-57.1-36.87S55.11,136.31,55.93,157.84Z"/><path class="cls-10" d="M114.58,166.22c-6.69,0-18.9-5.63-32.36-11.68v-10.1c13-7.33,25.76-14.41,32.36-14.62C118.23,142,117.77,154.38,114.58,166.22Z"/><path class="cls-9" d="M82.22,144.44v10.1l3.9,1.75a45.34,45.34,0,0,0,0-14Z"/><path class="cls-9" d="M114.58,129.82c3.32,10.1,3.58,24.18,0,36.4a27.72,27.72,0,0,1-8.63-1.77,66.84,66.84,0,0,0,0-32.3A27.73,27.73,0,0,1,114.58,129.82Z"/><line class="cls-40" x1="121.45" y1="137.25" x2="136.1" y2="132.21"/><line class="cls-40" x1="122.04" y1="144.43" x2="138.47" y2="143.18"/><line class="cls-40" x1="122.22" y1="153" x2="137.83" y2="153"/><line class="cls-40" x1="122.04" y1="160.59" x2="136.91" y2="164.82"/><path class="cls-39" d="M464.07,159.18a45.68,45.68,0,0,1-64,31.25l-24.8,25.74L390.09,184a45.65,45.65,0,1,1,74-24.85Z"/><path class="cls-41" d="M386.89,143.74c22.1-25.52,44.26-24.37,66.47,0C433,170,410.27,170.82,386.89,143.74Z"/><circle class="cls-42" cx="420.13" cy="144.38" r="16.62" transform="translate(182.44 519.7) rotate(-76.62)"/><circle class="cls-43" cx="420.13" cy="144.38" r="5.87"/><path class="cls-44" d="M386.89,143.74c12.6-17.72,32.65-27.31,52.28-13.82a59.92,59.92,0,0,1,14.19,13.82,93,93,0,0,0-15.43-11.83c-19.7-11.75-36.18-2.56-51,11.83Z"/><path class="cls-44" d="M401.71,157.26c13.36,7.25,24.64,7.24,38,0-11.17,9.89-26.82,9.88-38,0Z"/><line class="cls-45" x1="412.58" y1="162.8" x2="411.13" y2="170.94"/><line class="cls-45" x1="421.91" y1="163.74" x2="421.91" y2="172.69"/><line class="cls-45" x1="430.93" y1="162.12" x2="432.28" y2="170.41"/><line class="cls-45" x1="408.93" y1="117.05" x2="411.75" y2="125.68"/><line class="cls-45" x1="419.53" y1="125.03" x2="419.53" y2="115.33"/><line class="cls-45" x1="426.68" y1="125.85" x2="429.16" y2="117.05"/><polygon class="cls-46" points="146.03 87.35 91.14 87.35 113.02 67.59 93.96 47.82 146.03 47.82 146.03 87.35"/><polygon class="cls-43" points="120.08 72.26 146.03 87.35 146.03 68.39 120.08 72.26"/><polygon class="cls-46" points="354 87.35 408.86 87.35 386.99 67.59 406.04 47.82 354 47.82 354 87.35"/><polygon class="cls-43" points="379.94 72.26 354 87.35 354 68.71 379.94 72.26"/><path class="cls-46" d="M379.85,72.26c-88.68-13.4-175.46-14.14-259.77,0V29.82c83.52-14.28,170.48-13,259.77,0Z"/></g><g id="TEXTS"><path class="cls-21" d="M163.86,44.28c-2.71.31-4.06.47-6.77.81.35,2.85.53,4.28.88,7.13,3-.37,4.49-.55,7.48-.89.09.86.14,1.29.24,2.15-3.87.44-5.81.67-9.67,1.16l-2.5-19.77c3.81-.49,5.72-.71,9.54-1.15.09.86.14,1.29.24,2.15-2.9.33-4.34.5-7.24.85.31,2.5.46,3.75.77,6.25l6.79-.8C163.72,43,163.77,43.44,163.86,44.28Z"/><path class="cls-21" d="M168.57,53.16c-.86-7.93-1.29-11.89-2.16-19.81l2.49-.27c2.69,3.77,4,5.66,6.66,9.45a56.38,56.38,0,0,1,3.74,6.15l0,0c-.46-2.63-.74-5-1-8.12-.31-3.33-.47-5-.79-8.31l2.16-.2c.73,7.94,1.09,11.91,1.82,19.85l-2.25.21c-2.57-3.82-3.87-5.73-6.5-9.52a72.33,72.33,0,0,1-4-6.28l-.07,0c.39,2.49.7,4.86,1.05,8.15l.9,8.47Z"/><path class="cls-21" d="M198.47,49.61a14.54,14.54,0,0,1-5.23,1.47,8.32,8.32,0,0,1-6.67-2.1,11.13,11.13,0,0,1-3.06-7.19c-.51-5.91,2.75-10.58,8.69-11a9.87,9.87,0,0,1,4.48.6l-.4,2.13a8.13,8.13,0,0,0-4-.57c-4.3.32-6.85,3.57-6.43,8.55s3.33,7.78,7.35,7.48a6.5,6.5,0,0,0,2.94-.75c-.17-2.37-.25-3.56-.42-5.93l-3.55.26L192,40.47c2.31-.18,3.46-.26,5.77-.42C198.07,43.87,198.2,45.78,198.47,49.61Z"/><path class="cls-21" d="M200.65,30.38l2.29-.14c.44,7.09.65,10.64,1.09,17.73,3-.18,4.44-.26,7.4-.41,0,.86.07,1.29.11,2.15-3.84.2-5.76.31-9.61.56C201.42,42.31,201.17,38.33,200.65,30.38Z"/><path class="cls-21" d="M215.36,29.58l.9,19.9-2.23.11c-.39-8-.58-12-1-19.91Z"/><path class="cls-21" d="M219.72,46.2a7.27,7.27,0,0,0,4.06,1.15,3.29,3.29,0,0,0,3.52-3.52c-.05-1.86-1-2.95-3.41-3.85-2.84-1.08-4.74-2.67-4.85-5.47-.13-3.1,2.07-5.51,5.52-5.62a7.27,7.27,0,0,1,3.95.86c-.23.84-.34,1.27-.57,2.11a6.43,6.43,0,0,0-3.39-.84,3,3,0,0,0-3.22,3.1c.07,1.86,1.18,2.74,3.63,3.72,3,1.21,4.56,2.79,4.63,5.72s-1.81,5.78-5.89,5.92a8.11,8.11,0,0,1-4.46-1.1Z"/><path class="cls-21" d="M234.63,29c.06,3.33.1,5,.16,8.34,3.4-.07,5.1-.1,8.49-.13,0-3.33,0-5-.07-8.33l2.31,0c0,8,.07,12,.12,19.93h-2.26c0-3.73,0-5.6-.08-9.34-3.38,0-5.08.05-8.46.12.07,3.74.11,5.61.18,9.34l-2.23.05L232.34,29Z"/><path class="cls-21" d="M254.66,45.6a7.24,7.24,0,0,0,4,1.34,3.29,3.29,0,0,0,3.68-3.35c0-1.86-.9-3-3.23-4-2.78-1.21-4.6-2.88-4.59-5.69,0-3.1,2.33-5.4,5.78-5.35a7.25,7.25,0,0,1,3.91,1c-.27.83-.41,1.25-.67,2.09a6.36,6.36,0,0,0-3.35-1,3,3,0,0,0-3.36,2.95c0,1.86,1.05,2.78,3.45,3.88,3,1.34,4.42,3,4.37,5.93s-2.09,5.68-6.16,5.64a8.17,8.17,0,0,1-4.41-1.31C254.31,46.9,254.43,46.47,254.66,45.6Z"/><path class="cls-21" d="M279.69,48.66a9.91,9.91,0,0,1-4.59.78c-4.87-.16-8.46-3.78-8.32-10.32.14-6.23,4-10.39,9.5-10.2a8.44,8.44,0,0,1,4.18,1L279.83,32a7.44,7.44,0,0,0-3.54-1c-4.15-.14-7,2.78-7.11,8-.13,4.88,2.23,8.06,6.45,8.21a8.09,8.09,0,0,0,3.68-.7C279.47,47.43,279.54,47.84,279.69,48.66Z"/><path class="cls-21" d="M285.61,29.62c-.15,3.33-.23,5-.38,8.33,3.39.16,5.09.24,8.48.44.19-3.33.29-5,.48-8.32l2.32.13c-.49,8-.73,11.94-1.21,19.89L293.05,50c.21-3.73.32-5.6.53-9.33-3.38-.19-5.07-.28-8.46-.44-.17,3.74-.26,5.6-.43,9.34l-2.23-.1c.35-8,.52-12,.86-19.91Z"/><path class="cls-21" d="M314.78,41.32c-.58,6.83-4.5,10.14-8.9,9.82-4.56-.35-7.49-4.62-7.11-10.64.41-6.31,4.17-10.22,8.91-9.87S315.29,35.43,314.78,41.32Zm-13.59-.72c-.29,4.25,1.46,8.19,5,8.45s5.85-3.31,6.23-7.81c.32-4-1.17-8.24-5-8.52S301.48,36.24,301.19,40.6Z"/><path class="cls-21" d="M332.63,43.06c-.74,6.82-4.74,10-9.13,9.6-4.55-.45-7.39-4.79-6.86-10.79.56-6.31,4.41-10.13,9.14-9.66S333.28,37.18,332.63,43.06Zm-13.57-1c-.39,4.24,1.26,8.22,4.77,8.57s5.93-3.17,6.41-7.67c.42-3.94-1-8.26-4.77-8.63S319.45,37.67,319.06,42Z"/><path class="cls-21" d="M336.66,33.69l2.28.26c-.83,7.06-1.24,10.59-2.06,17.65,2.95.34,4.43.52,7.37.9-.11.85-.16,1.28-.27,2.14-3.82-.49-5.74-.72-9.57-1.15Z"/><path class="cls-10" d="M402.59,173.53a11.66,11.66,0,0,1,1.61.89,3,3,0,0,1,1.47,1.68,2.31,2.31,0,0,1-.24,1.69,2.11,2.11,0,0,1-2.36,1.15l0,0a2.2,2.2,0,0,1,.25,2.09,11,11,0,0,0-.48,2.38l-1.08-.59a9.05,9.05,0,0,1,.48-2.05c.35-1.13.19-1.73-.62-2.3l-.86-.56-2.06,3-1-.69Zm-1.38,3.73c.36.25.54.37.91.6a1.6,1.6,0,1,0,1.68-2.7,4.52,4.52,0,0,0-.85-.45Z"/><path class="cls-10" d="M409.65,182.05c-1.2-.41-1.79-.64-3-1.15-.49,1.12-.73,1.68-1.22,2.79a31.75,31.75,0,0,0,3.58,1.37l-.28.87A33.67,33.67,0,0,1,404,184l3.62-7.63a27.25,27.25,0,0,0,3.58,1.43l-.28.87a26,26,0,0,1-2.82-1.08l-1.07,2.45a27.16,27.16,0,0,0,2.88,1.11C409.82,181.53,409.77,181.7,409.65,182.05Z"/><path class="cls-10" d="M412.26,184.16c-.59,1-.9,1.42-1.54,2.35l-1.16-.33a50,50,0,0,0,4.78-7.48l1.08.21a50.2,50.2,0,0,0,1.49,8.75c-.49,0-.74-.08-1.23-.15-.23-1.1-.33-1.66-.52-2.76C414,184.56,413.41,184.44,412.26,184.16Zm2.82-.29c-.15-1-.22-1.52-.33-2.53-.06-.57-.07-1.09-.08-1.59h0c-.21.47-.43.95-.68,1.42-.5.89-.76,1.33-1.3,2.21C413.63,183.61,414.11,183.71,415.08,183.87Z"/><path class="cls-10" d="M418.82,179.46a18.4,18.4,0,0,1,1.94-.1,4.2,4.2,0,0,1,2.92,1,4.44,4.44,0,0,1,1.36,2.91,4.27,4.27,0,0,1-.88,3.39,5,5,0,0,1-3.85,1.33,13,13,0,0,1-2.09-.2Zm.59,7.52a6.68,6.68,0,0,0,1.14.1c2.41,0,3.6-1.44,3.43-3.7-.16-2-1.22-3.13-3.19-3.15a5.84,5.84,0,0,0-1.09.08C419.58,183,419.52,184.31,419.41,187Z"/><path class="cls-10" d="M426.66,178.93l1.5,8.32-1.14.19c-.5-3.35-.75-5-1.26-8.36Z"/><path class="cls-10" d="M430.15,186.84l-1.93-8.23,1-.24a31.93,31.93,0,0,0,3.58,3.37c.89.74,1.66,1.4,2.37,2l0,0c-.51-1-.91-2-1.39-3.19l-1.28-3.29.8-.33c1.32,3.11,2,4.67,3.29,7.79l-1.09.44a32.89,32.89,0,0,1-4-3.16,16.53,16.53,0,0,1-2.15-2.32l0,0c.32,1,.6,2,1,3.35l.92,3.5Z"/><path class="cls-10" d="M444.27,180a7.57,7.57,0,0,1-2.11,2,4.34,4.34,0,0,1-3.51.7,4,4,0,0,1-2.45-2.3,4.32,4.32,0,0,1,1.58-5.83,4.75,4.75,0,0,1,1.74-.71l.32.87a4,4,0,0,0-1.59.62,3.19,3.19,0,0,0-1.07,4.51,3,3,0,0,0,4.57,1.33,3.7,3.7,0,0,0,1.19-1L441.52,178c-.57.39-.86.57-1.45.93l-.46-.75c.93-.56,1.38-.87,2.27-1.51Z"/><path class="cls-10" d="M74.89,162.75l1,.65-4.74,7.32c1.47.95,2.22,1.4,3.73,2.28l-.53.91c-2-1.15-3-1.76-4.89-3C71.62,167.62,72.71,166,74.89,162.75Z"/><path class="cls-10" d="M81.41,166.66l-4.6,8.62-1.17-.63,4.73-8.55Z"/><path class="cls-10" d="M79.4,174.9a4.53,4.53,0,0,0,1.83,1.59c1.22.57,2.21.26,2.61-.65s.09-1.54-.89-2.53c-1.17-1.18-1.69-2.36-1.07-3.59a2.78,2.78,0,0,1,3.85-1.1,4.27,4.27,0,0,1,1.65,1.25l-.71.82a3.73,3.73,0,0,0-1.42-1.14,1.56,1.56,0,0,0-2.21.58c-.39.82-.08,1.49.91,2.51,1.22,1.25,1.69,2.31,1.14,3.63s-2.18,2.16-4.38,1.13a5.18,5.18,0,0,1-2.08-1.71Z"/><path class="cls-10" d="M90.57,172c-1.06-.39-1.58-.59-2.62-1l.41-1a65.27,65.27,0,0,0,6.32,2.28l-.32,1c-1.07-.33-1.6-.51-2.66-.88-1.16,3.28-1.74,4.92-2.89,8.2l-1.26-.45Z"/><path class="cls-10" d="M99,178.76c-1.46-.34-2.19-.52-3.64-.93l-1,3.39c1.68.48,2.53.69,4.24,1.08l-.24,1c-2.24-.51-3.35-.8-5.55-1.45l2.78-9.37c1.88.56,2.82.81,4.73,1.24-.09.41-.14.62-.24,1-1.47-.33-2.2-.52-3.65-.93-.34,1.19-.5,1.79-.84,3,1.43.4,2.15.58,3.6.92Z"/><path class="cls-10" d="M100.1,183.69c.79-3.83,1.18-5.74,2-9.57l1.26.24c.77,2.16,1.2,3.24,2.13,5.37.54,1.24,1,2.34,1.32,3.39h0c0-1.31.17-2.49.36-4s.31-2.44.52-4.06l1.1.13c-.44,3.89-.66,5.83-1.11,9.71l-1.32-.16c-1-2.13-1.51-3.21-2.39-5.36a24.21,24.21,0,0,1-1.16-3.53h0c-.17,1.22-.36,2.38-.66,4s-.47,2.46-.78,4.1Z"/><path class="cls-10" d="M112,175.48l-.7,9.75-1.32-.11.85-9.73Z"/><path class="cls-10" d="M113.6,185.36c.17-3.9.26-5.86.43-9.76l1.28,0c1.11,2,1.71,3,3,5,.73,1.14,1.34,2.15,1.85,3.14l0,0a39.64,39.64,0,0,1-.28-4c0-1.63-.07-2.45-.12-4.08l1.11,0c.17,3.9.26,5.85.44,9.76l-1.34,0c-1.37-1.95-2-2.93-3.23-4.93a23.45,23.45,0,0,1-1.7-3.29H115c0,1.24,0,2.41,0,4s-.07,2.51-.12,4.18Z"/><path class="cls-10" d="M131.39,183.86a9,9,0,0,1-3.07,1,5.13,5.13,0,0,1-4-.88,4.81,4.81,0,0,1-1.65-3.53,5,5,0,0,1,4.6-5.51,5.73,5.73,0,0,1,2.34.11c-.05.42-.07.64-.12,1.06a5.06,5.06,0,0,0-2.11-.12,3.69,3.69,0,0,0-3.39,4.31,3.55,3.55,0,0,0,4.25,3.52,4.21,4.21,0,0,0,1.71-.51c-.18-1.15-.26-1.72-.43-2.88-.8.12-1.2.18-2,.28l-.13-1c1.27-.16,1.91-.25,3.18-.46C130.93,181.08,131.08,182,131.39,183.86Z"/><text class="cls-47" transform="translate(215.65 144.38)">HEL<tspan class="cls-48" x="41.12" y="0">L</tspan><tspan x="52.14" y="0">O!</tspan></text></g></g></svg>